<svg width="100%" id="Layer_1" data-name="Layer 1" xmlns="http://www.w3.org/2000/svg" viewBox="0 0 234 50.33"><defs><style>.cls-1{fill:#ede0d4;}.cls-2{fill:#7f5539;}.cls-3,.cls-4,.cls-5{fill:#fff;}.cls-4{font-size:19.11px;stroke:#f2f2f2;stroke-miterlimit:10;stroke-width:0.25px;}.cls-4,.cls-5{font-family:Poppins-SemiBold, Poppins;font-weight:600;}.cls-5{font-size:6.77px;}.cls-6{fill:#bf967f;}</style></defs><rect class="cls-1" y="0.33" width="234" height="50"/><rect class="cls-2" width="234" height="11"/><rect class="cls-2" x="2.84" y="3.33" width="37.27" height="44" rx="4.18"/><path class="cls-3" d="M35.93,46.37c-9.58,0-19.16.13-28.74,0a4.28,4.28,0,0,1-4.35-4.06c-.07-1.87,0-3.76,0-5.64V9.46c0-1.75-.16-3.23,1.22-4.61S7.55,3.62,9.44,3.62H35c2.3,0,4.79,1,5.08,3.61a38.86,38.86,0,0,1,0,4.18V38.92a31.72,31.72,0,0,1,0,3.9,4.31,4.31,0,0,1-4.17,3.55s0,1.25,0,1.25a4.25,4.25,0,0,0,4.18-4.26c0-.39,0-.78,0-1.17V8.52c0-2,.1-4-1.72-5.34-1.52-1.11-3.71-.81-5.5-.81H23.71c-5.48,0-11-.05-16.42,0-2.92,0-4.45,2.15-4.46,4.9V40.14c0,1.2-.09,2.45,0,3.65A4.26,4.26,0,0,0,7,47.63H35.93S35.94,46.37,35.93,46.37Z" transform="translate(0 0.33)"/><text class="cls-4" transform="translate(9.73 35.95)">02</text><text class="cls-5" transform="translate(10.59 15.76)">Footer</text><rect class="cls-6" x="64.24" y="29.58" width="28" height="3"/><rect class="cls-6" x="64.24" y="34.58" width="28" height="3"/><rect class="cls-6" x="64.24" y="39.58" width="28" height="3"/><rect class="cls-6" x="64.24" y="18.58" width="28" height="7"/><rect class="cls-6" x="102.83" y="29.58" width="28" height="3"/><rect class="cls-6" x="102.83" y="34.58" width="28" height="3"/><rect class="cls-6" x="102.83" y="39.58" width="28" height="3"/><rect class="cls-6" x="102.83" y="18.58" width="28" height="7"/><rect class="cls-6" x="141.41" y="29.58" width="28" height="3"/><rect class="cls-6" x="141.41" y="34.58" width="28" height="3"/><rect class="cls-6" x="141.41" y="39.58" width="28" height="3"/><rect class="cls-6" x="141.41" y="18.58" width="28" height="7"/><rect class="cls-6" x="179" y="29.58" width="28" height="3"/><rect class="cls-6" x="179" y="34.58" width="28" height="3"/><rect class="cls-6" x="179" y="39.58" width="28" height="3"/><rect class="cls-6" x="179" y="18.58" width="28" height="7"/><circle class="cls-1" cx="67" cy="5.5" r="3"/><rect class="cls-1" x="72" y="2.5" width="20" height="6"/><circle class="cls-1" cx="106" cy="5.33" r="3"/><rect class="cls-1" x="111" y="2.33" width="20" height="6"/><circle class="cls-1" cx="144" cy="5.33" r="3"/><rect class="cls-1" x="149" y="2.33" width="20" height="6"/><circle class="cls-1" cx="182" cy="5.33" r="3"/><rect class="cls-1" x="187" y="2.33" width="20" height="6"/></svg>