<svg width="100%" id="Layer_1" data-name="Layer 1" xmlns="http://www.w3.org/2000/svg" viewBox="0 0 234 50"><defs><style>.cls-1{fill:#ede0d4;}.cls-2{fill:#7f5539;}.cls-3{fill:#bf967f;}.cls-4,.cls-5,.cls-6{fill:#fff;}.cls-5{font-size:19.11px;stroke:#f2f2f2;stroke-miterlimit:10;stroke-width:0.25px;}.cls-5,.cls-6{font-family:Poppins-SemiBold, Poppins;font-weight:600;}.cls-6{font-size:6.77px;}.cls-7{fill:#b28e7b;}.cls-8{fill:#91644a;}</style></defs><rect class="cls-1" width="234" height="50"/><rect class="cls-2" width="234" height="11"/><rect class="cls-3" x="94.32" y="25.96" width="15" height="5" rx="2.22"/><rect class="cls-3" x="75.99" y="25.96" width="15" height="5" rx="2.22"/><rect class="cls-3" x="112.65" y="25.96" width="15" height="5" rx="2.22"/><rect class="cls-3" x="130.99" y="25.96" width="15" height="5" rx="2.22"/><rect class="cls-2" x="3.66" y="3" width="37.27" height="44" rx="4.18"/><path class="cls-4" d="M36.75,46.37c-9.58,0-19.17.13-28.74,0a4.28,4.28,0,0,1-4.35-4.06c-.08-1.87,0-3.76,0-5.64V9.46c0-1.75-.16-3.23,1.22-4.61s3.49-1.23,5.38-1.23H35.83c2.31,0,4.79,1,5.08,3.61a38.86,38.86,0,0,1,0,4.18V38.92a29.86,29.86,0,0,1,0,3.9,4.29,4.29,0,0,1-4.16,3.55s0,1.25,0,1.25a4.25,4.25,0,0,0,4.17-4.26c0-.39,0-.78,0-1.17V8.52c0-2,.09-4-1.72-5.34-1.52-1.11-3.72-.81-5.5-.81H24.52c-5.47,0-10.94-.05-16.41,0-2.92,0-4.46,2.15-4.46,4.9V40.14c0,1.2-.09,2.45,0,3.65a4.26,4.26,0,0,0,4.19,3.84H36.75S36.76,46.37,36.75,46.37Z"/><text class="cls-5" transform="translate(13.63 35.62)">10</text><text class="cls-6" transform="translate(9.87 15.43)">Header</text><path class="cls-7" d="M217.3,28.45a3.65,3.65,0,1,1-3.65-3.65A3.65,3.65,0,0,1,217.3,28.45Z"/><path class="cls-7" d="M228.3,28.45a3.65,3.65,0,1,1-3.65-3.65A3.65,3.65,0,0,1,228.3,28.45Z"/><path class="cls-8" d="M49.76,30.89V32h-4.1V25H47v5.93Z"/><path class="cls-8" d="M57.13,28.46a3.91,3.91,0,0,1-.26,1.43A3.31,3.31,0,0,1,56.15,31a3.24,3.24,0,0,1-1.12.75,4,4,0,0,1-2.9,0A3.24,3.24,0,0,1,51,31a3.34,3.34,0,0,1-.73-1.13,4.21,4.21,0,0,1,0-2.86A3.44,3.44,0,0,1,51,25.9a3.24,3.24,0,0,1,1.12-.75,3.78,3.78,0,0,1,1.45-.27,4,4,0,0,1,1,.12,4,4,0,0,1,.87.35,3.09,3.09,0,0,1,.7.55,3.43,3.43,0,0,1,.53.72,3.19,3.19,0,0,1,.33.86A3.93,3.93,0,0,1,57.13,28.46Zm-1.34,0a3.28,3.28,0,0,0-.15-1,2.12,2.12,0,0,0-.44-.78,1.85,1.85,0,0,0-.7-.49,2.57,2.57,0,0,0-1.84,0,1.85,1.85,0,0,0-.7.49,2.29,2.29,0,0,0-.45.78,3.28,3.28,0,0,0-.15,1,3.35,3.35,0,0,0,.15,1,2.34,2.34,0,0,0,.45.77,1.85,1.85,0,0,0,.7.49,2.57,2.57,0,0,0,1.84,0,1.85,1.85,0,0,0,.7-.49,2.16,2.16,0,0,0,.44-.77A3.35,3.35,0,0,0,55.79,28.46Z"/><path class="cls-8" d="M64.05,28.45v2.84a3.65,3.65,0,0,1-1.13.57,4.59,4.59,0,0,1-1.3.18,4.46,4.46,0,0,1-1.55-.26A3.55,3.55,0,0,1,58.88,31a3.31,3.31,0,0,1-.76-1.13,4,4,0,0,1-.26-1.44A3.78,3.78,0,0,1,58.12,27a3.22,3.22,0,0,1,.72-1.13A3.35,3.35,0,0,1,60,25.14a4.23,4.23,0,0,1,1.51-.26,4,4,0,0,1,.8.07,3.27,3.27,0,0,1,1.27.47,4.45,4.45,0,0,1,.48.38l-.38.59a.34.34,0,0,1-.22.17.41.41,0,0,1-.31-.07l-.32-.19a1.69,1.69,0,0,0-.36-.15A2.32,2.32,0,0,0,62,26a4.45,4.45,0,0,0-.56,0,2.54,2.54,0,0,0-.94.17,2,2,0,0,0-.71.5,2.33,2.33,0,0,0-.46.78,3,3,0,0,0-.16,1,3.31,3.31,0,0,0,.17,1.08,2.25,2.25,0,0,0,.49.79,2,2,0,0,0,.75.5,2.61,2.61,0,0,0,1,.18,2.5,2.5,0,0,0,.69-.09,3.23,3.23,0,0,0,.59-.22V29.43H62a.24.24,0,0,1-.19-.07.22.22,0,0,1-.07-.17v-.74Z"/><path class="cls-8" d="M72,28.46a3.91,3.91,0,0,1-.26,1.43A3.31,3.31,0,0,1,71,31a3.24,3.24,0,0,1-1.12.75,4,4,0,0,1-2.9,0A3.24,3.24,0,0,1,65.88,31a3.19,3.19,0,0,1-.73-1.13,4.21,4.21,0,0,1,0-2.86,3.28,3.28,0,0,1,.73-1.13A3.24,3.24,0,0,1,67,25.15a3.75,3.75,0,0,1,1.45-.27,4,4,0,0,1,1,.12,3.87,3.87,0,0,1,.86.35,3.14,3.14,0,0,1,.71.55,3.43,3.43,0,0,1,.53.72,4,4,0,0,1,.33.86A3.93,3.93,0,0,1,72,28.46Zm-1.34,0a3.28,3.28,0,0,0-.15-1,2.27,2.27,0,0,0-.44-.78,1.93,1.93,0,0,0-.7-.49,2.43,2.43,0,0,0-.92-.17,2.49,2.49,0,0,0-.93.17,1.89,1.89,0,0,0-.69.49,2.13,2.13,0,0,0-.45.78,3.28,3.28,0,0,0-.15,1,3.35,3.35,0,0,0,.15,1,2.18,2.18,0,0,0,.45.77,1.89,1.89,0,0,0,.69.49,2.49,2.49,0,0,0,.93.17,2.43,2.43,0,0,0,.92-.17,1.93,1.93,0,0,0,.7-.49,2.32,2.32,0,0,0,.44-.77A3.35,3.35,0,0,0,70.66,28.46Z"/></svg>