<svg width="100%" id="Layer_1" data-name="Layer 1" xmlns="http://www.w3.org/2000/svg" viewBox="0 0 234 50"><defs><style>.cls-1{fill:#ede0d4;}.cls-2{fill:#7f5539;}.cls-3{fill:#bf967f;}.cls-4,.cls-5,.cls-6{fill:#fff;}.cls-5{font-size:19.11px;stroke:#f2f2f2;stroke-miterlimit:10;stroke-width:0.25px;}.cls-5,.cls-6{font-family:Poppins-SemiBold, Poppins;font-weight:600;}.cls-6{font-size:6.77px;}.cls-7{fill:#b28e7b;}.cls-8{fill:#91644a;}.cls-9{fill:#ddc3ab;}.cls-10{fill:#9b6649;}</style></defs><rect class="cls-1" width="234" height="50"/><rect class="cls-2" width="234" height="11"/><rect class="cls-3" x="119.83" y="34" width="15" height="5" rx="2.22"/><rect class="cls-3" x="101.5" y="34" width="15" height="5" rx="2.22"/><rect class="cls-3" x="138.17" y="34" width="15" height="5" rx="2.22"/><rect class="cls-3" x="156.5" y="34" width="15" height="5" rx="2.22"/><rect class="cls-2" x="3.55" y="3" width="37.27" height="44" rx="4.18"/><path class="cls-4" d="M36.64,46.37c-9.58,0-19.16.13-28.74,0a4.26,4.26,0,0,1-4.34-4.06c-.08-1.87,0-3.76,0-5.64V9.46c0-1.75-.17-3.23,1.21-4.61s3.49-1.23,5.38-1.23H35.73c2.3,0,4.79,1,5.08,3.61a38.86,38.86,0,0,1,0,4.18V38.92a31.72,31.72,0,0,1,0,3.9,4.3,4.3,0,0,1-4.17,3.55s0,1.25,0,1.25a4.25,4.25,0,0,0,4.18-4.26c0-.39,0-.78,0-1.17V8.52c0-2,.1-4-1.71-5.34-1.52-1.11-3.72-.81-5.51-.81H24.42c-5.47,0-11-.05-16.42,0-2.92,0-4.45,2.15-4.46,4.9V40.14c0,1.2-.09,2.45,0,3.65a4.26,4.26,0,0,0,4.19,3.84H36.64S36.65,46.37,36.64,46.37Z"/><text class="cls-5" transform="translate(11.73 35.62)">01</text><text class="cls-6" transform="translate(9.87 15.43)">Header</text><path class="cls-7" d="M217.3,23.42a3.65,3.65,0,1,1-3.65-3.65A3.64,3.64,0,0,1,217.3,23.42Z"/><path class="cls-7" d="M228.3,23.42a3.65,3.65,0,1,1-3.65-3.65A3.64,3.64,0,0,1,228.3,23.42Z"/><path class="cls-8" d="M49.65,25.85v1.08H45.54v-7h1.31v5.93Z"/><path class="cls-8" d="M57,23.42a3.91,3.91,0,0,1-.26,1.43A3.35,3.35,0,0,1,56,26a3.09,3.09,0,0,1-1.12.74,4,4,0,0,1-2.9,0A3.09,3.09,0,0,1,50.9,26a3.23,3.23,0,0,1-.73-1.14,4.06,4.06,0,0,1,0-2.86,3.28,3.28,0,0,1,.73-1.13A3.24,3.24,0,0,1,52,20.11a3.75,3.75,0,0,1,1.45-.27,4,4,0,0,1,1,.12,3.87,3.87,0,0,1,.86.35,3.46,3.46,0,0,1,.71.55,3.71,3.71,0,0,1,.53.72,4,4,0,0,1,.33.86A3.93,3.93,0,0,1,57,23.42Zm-1.34,0a3.28,3.28,0,0,0-.15-1,2.27,2.27,0,0,0-.44-.78,1.93,1.93,0,0,0-.7-.49,2.43,2.43,0,0,0-.92-.17,2.49,2.49,0,0,0-.93.17,1.89,1.89,0,0,0-.69.49,2.13,2.13,0,0,0-.45.78,3.28,3.28,0,0,0-.15,1,3.35,3.35,0,0,0,.15,1,2.18,2.18,0,0,0,.45.77,1.89,1.89,0,0,0,.69.49,2.49,2.49,0,0,0,.93.17,2.43,2.43,0,0,0,.92-.17,1.93,1.93,0,0,0,.7-.49,2.32,2.32,0,0,0,.44-.77A3.35,3.35,0,0,0,55.68,23.42Z"/><path class="cls-8" d="M63.94,23.41v2.84a3.59,3.59,0,0,1-1.14.57,4.47,4.47,0,0,1-1.29.18A4.24,4.24,0,0,1,60,26.74,3.69,3.69,0,0,1,58.77,26,3.31,3.31,0,0,1,58,24.86a4,4,0,0,1-.26-1.44A4,4,0,0,1,58,22a3.21,3.21,0,0,1,1.88-1.87,4.23,4.23,0,0,1,1.51-.26,4,4,0,0,1,.8.07,3.68,3.68,0,0,1,.69.19,2.83,2.83,0,0,1,.58.28,4.45,4.45,0,0,1,.48.38l-.38.59a.36.36,0,0,1-.23.17.39.39,0,0,1-.3-.07l-.32-.18a1.46,1.46,0,0,0-.36-.16,2.32,2.32,0,0,0-.44-.12,4.45,4.45,0,0,0-.56,0,2.35,2.35,0,0,0-.94.18,2,2,0,0,0-.72.49,2.49,2.49,0,0,0-.45.78,3,3,0,0,0-.16,1,3.31,3.31,0,0,0,.17,1.08,2.39,2.39,0,0,0,.49.8,2.19,2.19,0,0,0,.75.5,2.76,2.76,0,0,0,1,.17,3,3,0,0,0,.7-.08,3.28,3.28,0,0,0,.59-.23V24.39h-.88a.27.27,0,0,1-.2-.07.26.26,0,0,1-.07-.17v-.74Z"/><path class="cls-8" d="M71.88,23.42a3.91,3.91,0,0,1-.25,1.43A3.35,3.35,0,0,1,70.91,26a3.09,3.09,0,0,1-1.12.74,4,4,0,0,1-2.9,0A3.09,3.09,0,0,1,65.77,26,3.23,3.23,0,0,1,65,24.85,4.06,4.06,0,0,1,65,22a3.28,3.28,0,0,1,.73-1.13,3.24,3.24,0,0,1,1.12-.75,3.75,3.75,0,0,1,1.45-.27,4,4,0,0,1,1,.12,3.87,3.87,0,0,1,.86.35,3.46,3.46,0,0,1,.71.55,3.71,3.71,0,0,1,.53.72,4,4,0,0,1,.33.86A3.93,3.93,0,0,1,71.88,23.42Zm-1.33,0a3.28,3.28,0,0,0-.15-1,2.13,2.13,0,0,0-.45-.78,1.89,1.89,0,0,0-.69-.49,2.43,2.43,0,0,0-.92-.17,2.49,2.49,0,0,0-.93.17,2,2,0,0,0-.7.49,2.12,2.12,0,0,0-.44.78,3.28,3.28,0,0,0-.15,1,3.35,3.35,0,0,0,.15,1,2.16,2.16,0,0,0,.44.77,2,2,0,0,0,.7.49,2.49,2.49,0,0,0,.93.17,2.43,2.43,0,0,0,.92-.17,1.89,1.89,0,0,0,.69-.49,2.18,2.18,0,0,0,.45-.77A3.35,3.35,0,0,0,70.55,23.42Z"/><rect class="cls-9" x="105.18" y="20" width="62" height="7"/><rect class="cls-10" x="160.18" y="20" width="7" height="7"/></svg>