<svg width="100%" id="Layer_1" data-name="Layer 1" xmlns="http://www.w3.org/2000/svg" viewBox="0 0 234 50"><defs><style>.cls-1{fill:#ede0d4;}.cls-2{fill:#7f5539;}.cls-3{fill:#bf967f;}.cls-4,.cls-5,.cls-6{fill:#fff;}.cls-5{font-size:19.11px;stroke:#f2f2f2;stroke-miterlimit:10;stroke-width:0.25px;}.cls-5,.cls-6{font-family:Poppins-SemiBold, Poppins;font-weight:600;}.cls-6{font-size:6.77px;}.cls-7{fill:#b28e7b;}.cls-8{fill:#91644a;}</style></defs><rect class="cls-1" width="234" height="50"/><rect class="cls-2" width="234" height="11"/><rect class="cls-3" x="63.83" y="26.95" width="15" height="5" rx="2.22"/><rect class="cls-3" x="45.5" y="26.95" width="15" height="5" rx="2.22"/><rect class="cls-3" x="82.17" y="26.95" width="15" height="5" rx="2.22"/><rect class="cls-3" x="100.5" y="26.95" width="15" height="5" rx="2.22"/><rect class="cls-2" x="3.66" y="3" width="37.27" height="44" rx="4.18"/><path class="cls-4" d="M36.75,46.37c-9.58,0-19.17.13-28.74,0a4.28,4.28,0,0,1-4.35-4.06c-.08-1.87,0-3.76,0-5.64V9.46c0-1.75-.16-3.23,1.22-4.61s3.49-1.23,5.38-1.23H35.83c2.31,0,4.79,1,5.08,3.61a38.86,38.86,0,0,1,0,4.18V38.92a29.86,29.86,0,0,1,0,3.9,4.29,4.29,0,0,1-4.16,3.55s0,1.25,0,1.25a4.25,4.25,0,0,0,4.17-4.26c0-.39,0-.78,0-1.17V8.52c0-2,.09-4-1.72-5.34-1.52-1.11-3.72-.81-5.5-.81H24.52c-5.47,0-10.94-.05-16.41,0-2.92,0-4.46,2.15-4.46,4.9V40.14c0,1.2-.09,2.45,0,3.65a4.26,4.26,0,0,0,4.19,3.84H36.75S36.76,46.37,36.75,46.37Z"/><text class="cls-5" transform="translate(10.63 35.62)">02</text><text class="cls-6" transform="translate(9.87 15.43)">Header</text><path class="cls-7" d="M217.3,29.45a3.65,3.65,0,1,1-3.65-3.65A3.65,3.65,0,0,1,217.3,29.45Z"/><path class="cls-7" d="M228.3,29.45a3.65,3.65,0,1,1-3.65-3.65A3.65,3.65,0,0,1,228.3,29.45Z"/><path class="cls-8" d="M140.76,31.88V33h-4.1v-7H138v5.94Z"/><path class="cls-8" d="M148.13,29.45a4,4,0,0,1-.26,1.43,3.41,3.41,0,0,1-.72,1.13,3.24,3.24,0,0,1-1.12.75,4,4,0,0,1-2.9,0A3.24,3.24,0,0,1,142,32a3.44,3.44,0,0,1-.73-1.13,4.21,4.21,0,0,1,0-2.86,3.48,3.48,0,0,1,.73-1.14,3.22,3.22,0,0,1,1.12-.74,3.78,3.78,0,0,1,1.45-.27,4,4,0,0,1,1,.12,3.52,3.52,0,0,1,.87.35,3.09,3.09,0,0,1,.7.55,3.19,3.19,0,0,1,.53.72,3.07,3.07,0,0,1,.33.86A3.93,3.93,0,0,1,148.13,29.45Zm-1.34,0a3.35,3.35,0,0,0-.15-1,2.16,2.16,0,0,0-.44-.77,1.74,1.74,0,0,0-.7-.49,2.57,2.57,0,0,0-1.84,0,1.74,1.74,0,0,0-.7.49,2.34,2.34,0,0,0-.45.77,3.35,3.35,0,0,0-.15,1,3.28,3.28,0,0,0,.15,1,2.29,2.29,0,0,0,.45.78,2,2,0,0,0,.7.49,2.57,2.57,0,0,0,1.84,0,2,2,0,0,0,.7-.49,2.12,2.12,0,0,0,.44-.78A3.28,3.28,0,0,0,146.79,29.45Z"/><path class="cls-8" d="M155.05,29.44v2.83a3.47,3.47,0,0,1-1.13.58,4.59,4.59,0,0,1-1.3.18,4.24,4.24,0,0,1-1.55-.27,3.37,3.37,0,0,1-1.19-.74,3.31,3.31,0,0,1-.76-1.13,4,4,0,0,1-.26-1.44,3.78,3.78,0,0,1,.26-1.45A3.16,3.16,0,0,1,151,26.13a4,4,0,0,1,1.51-.26,5,5,0,0,1,.8.06,4.32,4.32,0,0,1,.69.19,3.49,3.49,0,0,1,.58.29,4.37,4.37,0,0,1,.48.37l-.38.59a.32.32,0,0,1-.22.18.46.46,0,0,1-.31-.07l-.32-.19a2.43,2.43,0,0,0-.36-.16A3.52,3.52,0,0,0,153,27a3.13,3.13,0,0,0-.56,0,2.35,2.35,0,0,0-.94.17,1.91,1.91,0,0,0-.71.5,2.33,2.33,0,0,0-.46.78,3,3,0,0,0-.16,1,3.2,3.2,0,0,0,.17,1.07,2.3,2.3,0,0,0,.49.8,2,2,0,0,0,.75.5,2.61,2.61,0,0,0,1,.17,3,3,0,0,0,.69-.08,3.23,3.23,0,0,0,.59-.22V30.42H153a.27.27,0,0,1-.19-.07.23.23,0,0,1-.07-.17v-.74Z"/><path class="cls-8" d="M163,29.45a4,4,0,0,1-.26,1.43A3.41,3.41,0,0,1,162,32a3.24,3.24,0,0,1-1.12.75,4,4,0,0,1-2.9,0,3.24,3.24,0,0,1-1.12-.75,3.28,3.28,0,0,1-.73-1.13,4.21,4.21,0,0,1,0-2.86,3.33,3.33,0,0,1,.73-1.14,3.22,3.22,0,0,1,1.12-.74,3.75,3.75,0,0,1,1.45-.27,4,4,0,0,1,1,.12,3.45,3.45,0,0,1,.86.35,3.14,3.14,0,0,1,.71.55,3.19,3.19,0,0,1,.53.72,3.84,3.84,0,0,1,.33.86A3.93,3.93,0,0,1,163,29.45Zm-1.34,0a3.35,3.35,0,0,0-.15-1,2.32,2.32,0,0,0-.44-.77,1.82,1.82,0,0,0-.7-.49,2.25,2.25,0,0,0-.92-.17,2.3,2.3,0,0,0-.93.17,1.78,1.78,0,0,0-.69.49,2.18,2.18,0,0,0-.45.77,3.35,3.35,0,0,0-.15,1,3.28,3.28,0,0,0,.15,1,2.13,2.13,0,0,0,.45.78,2,2,0,0,0,.69.49,2.49,2.49,0,0,0,.93.17,2.43,2.43,0,0,0,.92-.17,2.06,2.06,0,0,0,.7-.49,2.27,2.27,0,0,0,.44-.78A3.28,3.28,0,0,0,161.66,29.45Z"/></svg>