<svg xmlns="http://www.w3.org/2000/svg" width="700" height="1850" viewBox="0 0 700 1850" fill="none">&gt;
    <defs>
        <pattern width="1" height="1" id="theme_alan_s_cover_default_image_id" patternunits="objectBoundingBox">
            <image width="700" height="398" preserveAspectRatio="xMidYMid slice" href="#s_cover_default_image_url" />
        </pattern>
        <pattern width="1" height="1" id="theme_alan_s_text_image_default_image_id" patternunits="objectBoundingBox">
            <image width="182" height="165" preserveAspectRatio="xMidYMid slice" href="#s_text_image_default_image_url" />
        </pattern>
        <pattern width="1" height="1" id="theme_alan_s_image_text_default_image_id" patternunits="objectBoundingBox">
            <image width="182" height="165" preserveAspectRatio="xMidYMid slice" href="#s_image_text_default_image_url" />
        </pattern>
        <pattern width="1" height="1" id="theme_alan_s_picture_default_image_id" patternunits="objectBoundingBox">
            <image width="700" height="455" preserveAspectRatio="xMidYMid slice" href="#s_picture_default_image_url" />
        </pattern>
        <pattern width="1" height="1" id="theme_alan_s_masonry_block_default_image_1_id" patternunits="objectBoundingBox">
            <image width="350" height="225" preserveAspectRatio="xMidYMid slice" href="#s_masonry_block_default_image_1_url" />
        </pattern>
        <pattern width="1" height="1" id="theme_alan_s_parallax_default_image_id" patternunits="objectBoundingBox">
            <image width="178" height="225" preserveAspectRatio="xMidYMid slice" href="#s_parallax_default_image_url" />
        </pattern>
        <clipPath id="clip0">
            <rect width="700" height="1850" fill="#FFFFFF" />
        </clipPath>
        <clipPath id="clip1">
            <rect width="250" height="154" fill="#FFFFFF" transform="translate(450 1651)" />
        </clipPath>
    </defs>
    <g fill="none" fill-rule="evenodd" class="theme_alan">
        <rect width="700" height="1850" fill="#FFFFFF" />
        <g class="svgc_menu">
            <!-- Menu Background -->
            <rect class="svgc_menu_bg" fill="#MENU_COLOR" width="700" height="38" />
            <!-- Logo -->
            <path d="M72.0813 13.236V22.994H76.7393L76.4673 25H69.5823V13.236H72.0813ZM82.1423 12.964C83.2189 12.964 84.1483 13.2077 84.9303 13.695C85.7123 14.171 86.3129 14.868 86.7323 15.786C87.1516 16.704 87.3613 17.8147 87.3613 19.118C87.3613 20.3987 87.1516 21.5037 86.7323 22.433C86.3129 23.351 85.7123 24.0537 84.9303 24.541C84.1483 25.0283 83.2189 25.272 82.1423 25.272C81.0656 25.272 80.1306 25.034 79.3373 24.558C78.5553 24.0707 77.9546 23.368 77.5353 22.45C77.1159 21.5207 76.9063 20.41 76.9063 19.118C76.9063 17.8487 77.1159 16.755 77.5353 15.837C77.9659 14.9077 78.5723 14.1993 79.3543 13.712C80.1476 13.2133 81.0769 12.964 82.1423 12.964ZM82.1423 14.834C81.2809 14.834 80.6293 15.174 80.1873 15.854C79.7566 16.534 79.5413 17.622 79.5413 19.118C79.5413 20.614 79.7623 21.702 80.2043 22.382C80.6463 23.062 81.2923 23.402 82.1423 23.402C83.0036 23.402 83.6496 23.0677 84.0803 22.399C84.5109 21.719 84.7263 20.6253 84.7263 19.118C84.7263 17.6107 84.5109 16.5227 84.0803 15.854C83.6496 15.174 83.0036 14.834 82.1423 14.834ZM94.1682 12.964C94.9615 12.964 95.6642 13.0887 96.2762 13.338C96.8995 13.576 97.4775 13.9217 98.0102 14.375L96.7012 15.735C96.2818 15.4177 95.8852 15.1853 95.5112 15.038C95.1485 14.8907 94.7348 14.817 94.2702 14.817C93.3748 14.817 92.6495 15.174 92.0942 15.888C91.5502 16.5907 91.2782 17.6673 91.2782 19.118C91.2782 20.648 91.4878 21.7473 91.9072 22.416C92.3378 23.0733 93.0008 23.402 93.8962 23.402C94.5422 23.402 95.1258 23.2603 95.6472 22.977V20.104H93.9982L93.7432 18.285H98.0782V24.082C97.4662 24.456 96.8032 24.7507 96.0892 24.966C95.3865 25.17 94.6725 25.272 93.9472 25.272C92.2132 25.272 90.8985 24.7507 90.0032 23.708C89.1078 22.6653 88.6602 21.1297 88.6602 19.101C88.6602 17.8203 88.9038 16.7153 89.3912 15.786C89.8785 14.8567 90.5358 14.154 91.3632 13.678C92.2018 13.202 93.1368 12.964 94.1682 12.964ZM104.787 12.964C105.863 12.964 106.793 13.2077 107.575 13.695C108.357 14.171 108.957 14.868 109.377 15.786C109.796 16.704 110.006 17.8147 110.006 19.118C110.006 20.3987 109.796 21.5037 109.377 22.433C108.957 23.351 108.357 24.0537 107.575 24.541C106.793 25.0283 105.863 25.272 104.787 25.272C103.71 25.272 102.775 25.034 101.982 24.558C101.2 24.0707 100.599 23.368 100.18 22.45C99.7605 21.5207 99.5508 20.41 99.5508 19.118C99.5508 17.8487 99.7605 16.755 100.18 15.837C100.61 14.9077 101.217 14.1993 101.999 13.712C102.792 13.2133 103.721 12.964 104.787 12.964ZM104.787 14.834C103.925 14.834 103.274 15.174 102.832 15.854C102.401 16.534 102.186 17.622 102.186 19.118C102.186 20.614 102.407 21.702 102.849 22.382C103.291 23.062 103.937 23.402 104.787 23.402C105.648 23.402 106.294 23.0677 106.725 22.399C107.155 21.719 107.371 20.6253 107.371 19.118C107.371 17.6107 107.155 16.5227 106.725 15.854C106.294 15.174 105.648 14.834 104.787 14.834Z" opacity="1" fill="#MENU_COLOR" class="svgc_text" />
            <!-- Menu Links -->
            <g opacity=".5">
                <rect x="138" y="15" width="40" height="10" fill="#MENU_COLOR" class="svgc_text" />
                <rect x="190" y="15" width="40" height="10" fill="#MENU_COLOR" class="svgc_text" />
                <rect x="242" y="15" width="40" height="10" fill="#MENU_COLOR" class="svgc_text" />
                <rect x="294" y="15" width="40" height="10" fill="#MENU_COLOR" class="svgc_text" />
            </g>
            <!-- Menu Button -->
            <rect x="592" y="14" width="40" height="12" opacity="1" fill="#MENU_COLOR" class="svgc_text" />
        </g>
        <g class="s_cover">
            <!-- Background Image -->
            <rect y="38" width="700" height="398" fill="url(#theme_alan_s_cover_default_image_id)" class="img_reference_s_cover_default_image" />
            <!-- Filter -->
            <rect y="38" width="700" height="398" fill="#000000" fill-opacity="0.3" />
            <!-- Text -->
            <rect x="237" y="177" width="226" height="7" fill="#FFFFFD" fill-opacity="0.66" />
            <rect x="259" y="194" width="181" height="7" fill="#FFFFFD" fill-opacity="0.66" />
            <!-- Title -->
            <g fill="#fff" style=" transform: translateY(-109px); ">
                <path d="M204.5,188.668c-1.114,4.456-2.122,8.434-2.864,12.358h-0.106c-0.53-3.766-1.485-7.956-2.493-12.252l-4.349-18.139h-4.827   l-4.773,18.033c-1.22,4.615-2.334,8.858-2.917,12.412h-0.106c-0.636-3.448-1.591-7.85-2.652-12.358l-4.243-18.086h-4.88   l9.07,35.749h4.827l5.092-18.617c1.326-4.615,2.175-8.062,2.758-11.669h0.106c0.478,3.607,1.22,7.107,2.333,11.722l4.508,18.564   h4.827l10.131-35.749h-4.721L204.5,188.668z" />
                <path d="M226.667,180.076c-7.479,0-12.093,6.1-12.093,13.896c0,7.69,4.773,12.941,12.623,12.941c4.084,0,6.948-0.901,8.593-1.644   l-0.849-3.289c-1.697,0.689-3.766,1.273-7.107,1.273c-4.667,0-8.646-2.599-8.751-8.911l17.98,0.053   c0.106-0.531,0.159-1.273,0.159-2.228C237.222,187.449,235.047,180.076,226.667,180.076z M219.136,191.002   c0.371-3.235,2.387-7.585,7.16-7.585c5.198,0,6.471,4.667,6.418,7.585H219.136z" />
                <rect xmlns="http://www.w3.org/2000/svg" fill="#fff" x="243.001" y="168.726" width="4.667" height="37.658" />
                <path d="M267.345,183.842c2.546,0,4.296,0.637,5.41,1.22l1.061-3.554c-1.273-0.689-3.713-1.379-6.471-1.379   c-8.38,0-13.79,5.781-13.79,13.684s5.039,13.154,12.782,13.154c3.448,0,6.153-0.902,7.373-1.485l-0.795-3.5   c-1.326,0.583-3.076,1.22-5.729,1.22c-5.092,0-8.911-3.66-8.911-9.6C258.275,188.244,261.458,183.842,267.345,183.842z" />
                <path d="M289.302,206.967h0.053c6.1,0,12.729-4.137,12.729-13.684c0-7.797-4.985-13.154-12.358-13.154   c-7.054,0-12.729,5.039-12.729,13.631C276.997,201.875,282.407,206.967,289.302,206.967z M289.567,183.63   c5.516,0,7.69,5.463,7.69,9.813c0,5.834-3.341,10.024-7.796,10.024h-0.053c-4.508,0-7.691-4.243-7.691-9.866   C281.717,188.722,284.104,183.63,289.567,183.63z" />
                <path d="M324.041,191.002v15.381h4.562v-15.912c0-0.795,0.159-1.644,0.371-2.333c0.849-2.228,2.864-4.19,5.569-4.19   c3.713,0,5.569,2.917,5.569,7.903v14.533h4.562v-15.116c0-8.911-5.039-11.138-8.486-11.138c-2.44,0-4.084,0.636-5.622,1.803   c-1.061,0.795-2.122,1.856-2.917,3.341h-0.106c-1.114-3.023-3.766-5.145-7.213-5.145c-4.296,0-6.683,2.281-8.115,4.72h-0.159   l-0.212-4.137h-4.084c0.106,2.121,0.212,4.243,0.212,6.948v18.723h4.561v-15.487c0-0.796,0.106-1.591,0.372-2.281   c0.743-2.334,2.917-4.667,5.781-4.667C322.238,183.948,324.041,186.865,324.041,191.002z" />
                <path d="M362.969,206.914c4.085,0,6.948-0.901,8.593-1.644l-0.849-3.289c-1.697,0.689-3.766,1.273-7.107,1.273   c-4.667,0-8.646-2.599-8.751-8.911l17.98,0.053c0.105-0.531,0.159-1.273,0.159-2.228c0-4.72-2.175-12.093-10.556-12.093   c-7.479,0-12.093,6.1-12.093,13.896C350.346,201.663,355.119,206.914,362.969,206.914z M362.067,183.417   c5.198,0,6.471,4.667,6.418,7.585h-13.578C355.278,187.767,357.294,183.417,362.067,183.417z" />
                <path d="M391.076,198.269c0,3.023,0.53,5.304,1.804,6.736c1.113,1.22,2.864,1.962,5.039,1.962c1.803,0,3.235-0.318,4.137-0.637   l-0.212-3.553c-0.689,0.212-1.433,0.318-2.705,0.318c-2.6,0-3.501-1.803-3.501-4.986v-13.843h6.684v-3.553h-6.684v-6.153   l-4.562,1.432v4.721h-3.978v3.553h3.978V198.269z" />
                <path d="M420.459,180.129c-1.75,0-3.395,0.477-4.773,1.326c-1.433,0.743-2.599,1.962-3.342,3.289h-0.105v-16.018h-4.668v37.658   h4.668v-15.487c0-0.902,0.053-1.591,0.317-2.228c0.902-2.546,3.235-4.667,6.259-4.667c4.402,0,5.94,3.448,5.94,7.638v14.745h4.668   v-15.275C429.423,182.251,423.906,180.129,420.459,180.129z" />
                <path d="M447.241,180.076c-7.479,0-12.093,6.1-12.093,13.896c0,7.69,4.773,12.941,12.623,12.941c4.085,0,6.948-0.901,8.593-1.644   l-0.849-3.289c-1.697,0.689-3.766,1.273-7.107,1.273c-4.667,0-8.646-2.599-8.751-8.911l17.98,0.053   c0.105-0.531,0.159-1.273,0.159-2.228C457.797,187.449,455.622,180.076,447.241,180.076z M439.71,191.002   c0.371-3.235,2.387-7.585,7.16-7.585c5.198,0,6.471,4.667,6.418,7.585H439.71z" />
                <path d="M491.793,180.129c-2.44,0-4.084,0.636-5.622,1.803c-1.062,0.795-2.122,1.856-2.918,3.341h-0.105   c-1.114-3.023-3.766-5.145-7.214-5.145c-4.296,0-6.683,2.281-8.114,4.72h-0.159l-0.213-4.137h-4.084   c0.106,2.121,0.213,4.243,0.213,6.948v18.723h4.561v-15.487c0-0.796,0.106-1.591,0.372-2.281c0.742-2.334,2.917-4.667,5.781-4.667   c3.554,0,5.356,2.917,5.356,7.054v15.381h4.562v-15.912c0-0.795,0.159-1.644,0.371-2.333c0.849-2.228,2.864-4.19,5.569-4.19   c3.713,0,5.569,2.917,5.569,7.903v14.533h4.562v-15.116C500.279,182.357,495.24,180.129,491.793,180.129z" />
                <path d="M528.6,192.169c0-4.72-2.175-12.093-10.556-12.093c-7.479,0-12.093,6.1-12.093,13.896c0,7.69,4.773,12.941,12.623,12.941   c4.085,0,6.948-0.901,8.593-1.644l-0.849-3.289c-1.697,0.689-3.766,1.273-7.107,1.273c-4.667,0-8.646-2.599-8.751-8.911   l17.98,0.053C528.546,193.866,528.6,193.124,528.6,192.169z M510.513,191.002c0.371-3.235,2.387-7.585,7.16-7.585   c5.198,0,6.471,4.667,6.418,7.585H510.513z" />
                <path d="M308.021,263.32l-12.223-29.211h-0.906l-12.353,28.9c-1.071,2.538-2.046,4.221-2.926,5.05   c-0.432,0.415-1.382,0.751-2.849,1.01v0.958h11.058v-0.958c-1.692-0.121-2.793-0.384-3.302-0.79   c-0.509-0.405-0.764-0.876-0.764-1.411c0-0.673,0.293-1.692,0.881-3.056l2.382-5.542h13.596l2.124,5.05   c0.69,1.64,1.036,2.84,1.036,3.6c0,0.569-0.246,1.053-0.738,1.45c-0.492,0.397-1.438,0.63-2.836,0.699v0.958h13.854v-0.958   c-1.433-0.086-2.551-0.479-3.354-1.178C309.899,267.191,309.005,265.668,308.021,263.32z M287.822,256.354l6.111-14.191   l5.957,14.191H287.822z" />
                <path d="M342.36,265.094c-0.898,1.01-1.891,1.713-2.979,2.11c-1.087,0.397-2.978,0.596-5.671,0.596h-2.564   c-2.262,0-3.608-0.086-4.04-0.259s-0.751-0.44-0.958-0.803c-0.276-0.535-0.415-1.519-0.415-2.952v-22.063   c0-2.089,0.138-3.41,0.415-3.962c0.276-0.552,0.79-1.01,1.541-1.373c0.751-0.362,2.059-0.535,3.923-0.518v-0.958h-15.901v0.958   h1.321c1.33,0,2.331,0.38,3.004,1.14c0.483,0.553,0.726,1.925,0.726,4.118v22.659c0,2.003-0.182,3.28-0.544,3.833   c-0.639,0.967-1.701,1.45-3.186,1.45h-1.321v0.958h27.191l3.004-9.53l-0.855-0.182C344.155,262.491,343.258,264.083,342.36,265.094   z" />
                <path d="M378.719,263.32l-12.223-29.211h-0.906l-12.353,28.9c-1.071,2.538-2.046,4.221-2.927,5.05   c-0.432,0.415-1.382,0.751-2.849,1.01v0.958h11.058v-0.958c-1.692-0.121-2.793-0.384-3.302-0.79   c-0.509-0.405-0.764-0.876-0.764-1.411c0-0.673,0.293-1.692,0.881-3.056l2.382-5.542h13.596l2.124,5.05   c0.689,1.64,1.035,2.84,1.035,3.6c0,0.569-0.246,1.053-0.737,1.45c-0.492,0.397-1.438,0.63-2.836,0.699v0.958h13.854v-0.958   c-1.434-0.086-2.551-0.479-3.354-1.178C380.597,267.191,379.703,265.668,378.719,263.32z M358.52,256.354l6.111-14.191   l5.957,14.191H358.52z" />
                <path d="M410.676,235.869h1.217c1.381,0,2.392,0.363,3.03,1.088c0.483,0.535,0.725,1.882,0.725,4.04v20.251l-21.468-26.337h-9.53   v0.958c1.019,0,1.778,0.078,2.279,0.233c1.019,0.328,1.791,0.682,2.317,1.062c0.526,0.38,1.299,1.166,2.318,2.357v24.42   c0,1.968-0.19,3.229-0.57,3.781c-0.621,0.898-1.683,1.347-3.186,1.347h-1.217v0.958h12.224v-0.958h-1.243   c-1.364,0-2.374-0.363-3.03-1.088c-0.466-0.535-0.699-1.881-0.699-4.04v-21.624l23.151,28.279h0.933v-29.6   c0-1.968,0.189-3.229,0.569-3.781c0.622-0.897,1.675-1.347,3.16-1.347h1.242v-0.958h-12.223V235.869z" />
            </g>
            <!-- Button -->
            <rect width="89" height="24" transform="translate(305 225)" fill="#3AADAA" />
        </g>
        <g class="s_text_image">
            <!-- Background Image -->
            <rect y="436" width="700" height="289" fill="#FFFFFF" />
            <!-- Title -->
            <path fill="#000" d="M75.902 575L75.2 572.21H71.294L70.592 575H67.838L71.672 562.544H74.894L78.71 575H75.902ZM71.798 570.248H74.696L73.238 564.506L71.798 570.248ZM87.3694 565.172C88.7134 565.172 89.8654 565.556 90.8254 566.324L89.8534 567.782C89.0494 567.278 88.2574 567.026 87.4774 567.026C87.0574 567.026 86.7334 567.104 86.5054 567.26C86.2774 567.416 86.1634 567.626 86.1634 567.89C86.1634 568.082 86.2114 568.244 86.3074 568.376C86.4154 568.508 86.6074 568.634 86.8834 568.754C87.1714 568.874 87.5974 569.018 88.1614 569.186C89.1694 569.462 89.9194 569.834 90.4114 570.302C90.9034 570.758 91.1494 571.388 91.1494 572.192C91.1494 572.828 90.9634 573.38 90.5914 573.848C90.2314 574.316 89.7394 574.676 89.1154 574.928C88.4914 575.168 87.7954 575.288 87.0274 575.288C86.2234 575.288 85.4914 575.168 84.8314 574.928C84.1714 574.676 83.6074 574.334 83.1394 573.902L84.3994 572.498C85.2034 573.122 86.0554 573.434 86.9554 573.434C87.4354 573.434 87.8134 573.344 88.0894 573.164C88.3774 572.972 88.5214 572.714 88.5214 572.39C88.5214 572.138 88.4674 571.94 88.3594 571.796C88.2514 571.652 88.0534 571.52 87.7654 571.4C87.4774 571.268 87.0274 571.118 86.4154 570.95C85.4554 570.686 84.7414 570.314 84.2734 569.834C83.8174 569.342 83.5894 568.736 83.5894 568.016C83.5894 567.476 83.7454 566.99 84.0574 566.558C84.3694 566.126 84.8074 565.79 85.3714 565.55C85.9474 565.298 86.6134 565.172 87.3694 565.172ZM100.879 570.014C100.879 570.134 100.861 570.464 100.825 571.004H94.8667C94.9507 571.868 95.1847 572.48 95.5687 572.84C95.9527 573.2 96.4747 573.38 97.1347 573.38C97.5427 573.38 97.9267 573.314 98.2867 573.182C98.6467 573.05 99.0367 572.84 99.4567 572.552L100.519 573.992C99.4507 574.856 98.2447 575.288 96.9007 575.288C95.4007 575.288 94.2487 574.838 93.4447 573.938C92.6407 573.038 92.2387 571.82 92.2387 570.284C92.2387 569.312 92.4067 568.442 92.7427 567.674C93.0907 566.894 93.5887 566.282 94.2367 565.838C94.8967 565.394 95.6767 565.172 96.5767 565.172C97.9327 565.172 98.9887 565.598 99.7447 566.45C100.501 567.302 100.879 568.49 100.879 570.014ZM98.3407 569.294C98.3407 567.71 97.7707 566.918 96.6307 566.918C96.1027 566.918 95.6887 567.116 95.3887 567.512C95.1007 567.896 94.9267 568.526 94.8667 569.402H98.3407V569.294ZM106.707 565.172C107.343 565.172 107.913 565.268 108.417 565.46C108.933 565.64 109.419 565.928 109.875 566.324L108.759 567.836C108.447 567.596 108.141 567.422 107.841 567.314C107.553 567.206 107.235 567.152 106.887 567.152C105.531 567.152 104.853 568.196 104.853 570.284C104.853 571.34 105.027 572.096 105.375 572.552C105.723 573.008 106.221 573.236 106.869 573.236C107.205 573.236 107.511 573.188 107.787 573.092C108.063 572.984 108.387 572.81 108.759 572.57L109.875 574.172C108.963 574.916 107.919 575.288 106.743 575.288C105.807 575.288 104.991 575.084 104.295 574.676C103.611 574.268 103.083 573.692 102.711 572.948C102.339 572.192 102.153 571.31 102.153 570.302C102.153 569.294 102.339 568.406 102.711 567.638C103.083 566.858 103.611 566.252 104.295 565.82C104.991 565.388 105.795 565.172 106.707 565.172ZM117.03 574.55C116.682 574.79 116.286 574.97 115.842 575.09C115.41 575.222 114.978 575.288 114.546 575.288C113.562 575.276 112.818 574.994 112.314 574.442C111.81 573.89 111.558 573.08 111.558 572.012V567.26H110.136V565.46H111.558V563.372L114.114 563.066V565.46H116.31L116.058 567.26H114.114V571.958C114.114 572.414 114.192 572.744 114.348 572.948C114.504 573.152 114.744 573.254 115.068 573.254C115.392 573.254 115.752 573.146 116.148 572.93L117.03 574.55ZM120.718 565.46V575H118.162V565.46H120.718ZM119.422 560.546C119.878 560.546 120.25 560.69 120.538 560.978C120.838 561.254 120.988 561.608 120.988 562.04C120.988 562.472 120.838 562.832 120.538 563.12C120.25 563.396 119.878 563.534 119.422 563.534C118.966 563.534 118.594 563.396 118.306 563.12C118.018 562.832 117.874 562.472 117.874 562.04C117.874 561.608 118.018 561.254 118.306 560.978C118.594 560.69 118.966 560.546 119.422 560.546ZM127.256 565.172C128.684 565.172 129.8 565.622 130.604 566.522C131.408 567.41 131.81 568.646 131.81 570.23C131.81 571.238 131.624 572.126 131.252 572.894C130.892 573.65 130.364 574.238 129.668 574.658C128.984 575.078 128.174 575.288 127.238 575.288C125.81 575.288 124.688 574.844 123.872 573.956C123.068 573.056 122.666 571.814 122.666 570.23C122.666 569.222 122.846 568.34 123.206 567.584C123.578 566.816 124.106 566.222 124.79 565.802C125.486 565.382 126.308 565.172 127.256 565.172ZM127.256 567.08C126.608 567.08 126.122 567.338 125.798 567.854C125.486 568.358 125.33 569.15 125.33 570.23C125.33 571.31 125.486 572.108 125.798 572.624C126.122 573.128 126.602 573.38 127.238 573.38C127.874 573.38 128.348 573.128 128.66 572.624C128.984 572.108 129.146 571.31 129.146 570.23C129.146 569.15 128.99 568.358 128.678 567.854C128.366 567.338 127.892 567.08 127.256 567.08ZM139.082 565.172C139.922 565.172 140.576 565.43 141.044 565.946C141.512 566.45 141.746 567.152 141.746 568.052V575H139.19V568.484C139.19 567.968 139.1 567.608 138.92 567.404C138.752 567.188 138.494 567.08 138.146 567.08C137.786 567.08 137.456 567.194 137.156 567.422C136.868 567.638 136.586 567.968 136.31 568.412V575H133.754V565.46H135.968L136.166 566.666C136.562 566.174 136.994 565.802 137.462 565.55C137.942 565.298 138.482 565.172 139.082 565.172ZM156.889 562.544L156.601 564.614H153.451V575H150.805V564.614H147.493V562.544H156.889ZM160.744 565.46V575H158.188V565.46H160.744ZM159.448 560.546C159.904 560.546 160.276 560.69 160.564 560.978C160.864 561.254 161.014 561.608 161.014 562.04C161.014 562.472 160.864 562.832 160.564 563.12C160.276 563.396 159.904 563.534 159.448 563.534C158.992 563.534 158.62 563.396 158.332 563.12C158.044 562.832 157.9 562.472 157.9 562.04C157.9 561.608 158.044 561.254 158.332 560.978C158.62 560.69 158.992 560.546 159.448 560.546ZM168.974 574.55C168.626 574.79 168.23 574.97 167.786 575.09C167.354 575.222 166.922 575.288 166.49 575.288C165.506 575.276 164.762 574.994 164.258 574.442C163.754 573.89 163.502 573.08 163.502 572.012V567.26H162.08V565.46H163.502V563.372L166.058 563.066V565.46H168.254L168.002 567.26H166.058V571.958C166.058 572.414 166.136 572.744 166.292 572.948C166.448 573.152 166.688 573.254 167.012 573.254C167.336 573.254 167.696 573.146 168.092 572.93L168.974 574.55ZM172.306 575.288C171.526 575.288 170.92 575.066 170.488 574.622C170.056 574.166 169.84 573.524 169.84 572.696V561.662L172.396 561.374V572.624C172.396 573.044 172.57 573.254 172.918 573.254C173.11 573.254 173.278 573.218 173.422 573.146L173.944 574.964C173.452 575.18 172.906 575.288 172.306 575.288ZM183.232 570.014C183.232 570.134 183.214 570.464 183.178 571.004H177.22C177.304 571.868 177.538 572.48 177.922 572.84C178.306 573.2 178.828 573.38 179.488 573.38C179.896 573.38 180.28 573.314 180.64 573.182C181 573.05 181.39 572.84 181.81 572.552L182.872 573.992C181.804 574.856 180.598 575.288 179.254 575.288C177.754 575.288 176.602 574.838 175.798 573.938C174.994 573.038 174.592 571.82 174.592 570.284C174.592 569.312 174.76 568.442 175.096 567.674C175.444 566.894 175.942 566.282 176.59 565.838C177.25 565.394 178.03 565.172 178.93 565.172C180.286 565.172 181.342 565.598 182.098 566.45C182.854 567.302 183.232 568.49 183.232 570.014ZM180.694 569.294C180.694 567.71 180.124 566.918 178.984 566.918C178.456 566.918 178.042 567.116 177.742 567.512C177.454 567.896 177.28 568.526 177.22 569.402H180.694V569.294Z" />
            <!-- Sub-title -->
            <rect x="68" y="547" width="72" height="5" fill="#3AADAA" />
            <!-- Text -->
            <rect x="68.162" y="592.454" width="254" height="5" fill="#000" fill-opacity="0.33" />
            <rect x="68.162" y="602.454" width="233.563" height="5" fill="#000" fill-opacity="0.33" />
            <rect x="68.162" y="612.454" width="175.172" height="5" fill="#000" fill-opacity="0.33" />
            <rect x="68.162" y="622.454" width="248.161" height="5" fill="#000" fill-opacity="0.33" />
            <rect x="68.162" y="632.454" width="191.23" height="5" fill="#000" fill-opacity="0.33" />
            <!-- Button -->
            <rect width="66" height="20" transform="translate(68.162 656.454)" fill="#3AADAA" />
            <!-- Image -->
            <g>
                <path d="M421 531H594V675L421 531Z" fill="#3AADAA" />
                <path d="M399 541H581V706L399 670.144V541Z" fill="url(#theme_alan_s_text_image_default_image_id)" class="img_reference_s_text_image_default_image" />
                <path d="M387.418 662.9H388.836L388.127 664.124L387.418 665.347L386.709 664.124L386 662.9H387.418Z" fill="#383E45" />
                <path d="M403.514 662.9H404.932L404.223 664.124L403.514 665.347L402.805 664.124L402.096 662.9H403.514Z" fill="#383E45" />
                <path d="M419.61 662.9H421.028L420.319 664.124L419.61 665.347L418.901 664.124L418.192 662.9H419.61Z" fill="#383E45" />
                <path d="M387.418 676.467H388.836L388.127 677.691L387.418 678.915L386.709 677.691L386 676.467H387.418Z" fill="#383E45" />
                <path d="M403.514 676.467H404.932L404.223 677.691L403.514 678.915L402.805 677.691L402.096 676.467H403.514Z" fill="#383E45" />
                <path d="M419.61 676.467H421.028L420.319 677.691L419.61 678.915L418.901 677.691L418.192 676.467H419.61Z" fill="#383E45" />
                <path d="M387.418 690.035H388.836L388.127 691.259L387.418 692.5L386.709 691.259L386 690.035H387.418Z" fill="#383E45" />
                <path d="M403.514 690.035H404.932L404.223 691.259L403.514 692.5L402.805 691.259L402.096 690.035H403.514Z" fill="#383E45" />
                <path d="M419.61 690.035H421.028L420.319 691.259L419.61 692.5L418.901 691.259L418.192 690.035H419.61Z" fill="#383E45" /> --&gt;
            </g>
        </g>
        <g class="s_image_text">
            <!-- Background Image -->
            <rect y="725" width="700" height="331" fill="#FFFFFF" />
            <!-- Title -->
            <path fill="#000" d="M357.902 836L357.2 833.21H353.294L352.592 836H349.838L353.672 823.544H356.894L360.71 836H357.902ZM353.798 831.248H356.696L355.238 825.506L353.798 831.248ZM369.369 826.172C370.713 826.172 371.865 826.556 372.825 827.324L371.853 828.782C371.049 828.278 370.257 828.026 369.477 828.026C369.057 828.026 368.733 828.104 368.505 828.26C368.277 828.416 368.163 828.626 368.163 828.89C368.163 829.082 368.211 829.244 368.307 829.376C368.415 829.508 368.607 829.634 368.883 829.754C369.171 829.874 369.597 830.018 370.161 830.186C371.169 830.462 371.919 830.834 372.411 831.302C372.903 831.758 373.149 832.388 373.149 833.192C373.149 833.828 372.963 834.38 372.591 834.848C372.231 835.316 371.739 835.676 371.115 835.928C370.491 836.168 369.795 836.288 369.027 836.288C368.223 836.288 367.491 836.168 366.831 835.928C366.171 835.676 365.607 835.334 365.139 834.902L366.399 833.498C367.203 834.122 368.055 834.434 368.955 834.434C369.435 834.434 369.813 834.344 370.089 834.164C370.377 833.972 370.521 833.714 370.521 833.39C370.521 833.138 370.467 832.94 370.359 832.796C370.251 832.652 370.053 832.52 369.765 832.4C369.477 832.268 369.027 832.118 368.415 831.95C367.455 831.686 366.741 831.314 366.273 830.834C365.817 830.342 365.589 829.736 365.589 829.016C365.589 828.476 365.745 827.99 366.057 827.558C366.369 827.126 366.807 826.79 367.371 826.55C367.947 826.298 368.613 826.172 369.369 826.172ZM382.879 831.014C382.879 831.134 382.861 831.464 382.825 832.004H376.867C376.951 832.868 377.185 833.48 377.569 833.84C377.953 834.2 378.475 834.38 379.135 834.38C379.543 834.38 379.927 834.314 380.287 834.182C380.647 834.05 381.037 833.84 381.457 833.552L382.519 834.992C381.451 835.856 380.245 836.288 378.901 836.288C377.401 836.288 376.249 835.838 375.445 834.938C374.641 834.038 374.239 832.82 374.239 831.284C374.239 830.312 374.407 829.442 374.743 828.674C375.091 827.894 375.589 827.282 376.237 826.838C376.897 826.394 377.677 826.172 378.577 826.172C379.933 826.172 380.989 826.598 381.745 827.45C382.501 828.302 382.879 829.49 382.879 831.014ZM380.341 830.294C380.341 828.71 379.771 827.918 378.631 827.918C378.103 827.918 377.689 828.116 377.389 828.512C377.101 828.896 376.927 829.526 376.867 830.402H380.341V830.294ZM388.707 826.172C389.343 826.172 389.913 826.268 390.417 826.46C390.933 826.64 391.419 826.928 391.875 827.324L390.759 828.836C390.447 828.596 390.141 828.422 389.841 828.314C389.553 828.206 389.235 828.152 388.887 828.152C387.531 828.152 386.853 829.196 386.853 831.284C386.853 832.34 387.027 833.096 387.375 833.552C387.723 834.008 388.221 834.236 388.869 834.236C389.205 834.236 389.511 834.188 389.787 834.092C390.063 833.984 390.387 833.81 390.759 833.57L391.875 835.172C390.963 835.916 389.919 836.288 388.743 836.288C387.807 836.288 386.991 836.084 386.295 835.676C385.611 835.268 385.083 834.692 384.711 833.948C384.339 833.192 384.153 832.31 384.153 831.302C384.153 830.294 384.339 829.406 384.711 828.638C385.083 827.858 385.611 827.252 386.295 826.82C386.991 826.388 387.795 826.172 388.707 826.172ZM399.03 835.55C398.682 835.79 398.286 835.97 397.842 836.09C397.41 836.222 396.978 836.288 396.546 836.288C395.562 836.276 394.818 835.994 394.314 835.442C393.81 834.89 393.558 834.08 393.558 833.012V828.26H392.136V826.46H393.558V824.372L396.114 824.066V826.46H398.31L398.058 828.26H396.114V832.958C396.114 833.414 396.192 833.744 396.348 833.948C396.504 834.152 396.744 834.254 397.068 834.254C397.392 834.254 397.752 834.146 398.148 833.93L399.03 835.55ZM402.718 826.46V836H400.162V826.46H402.718ZM401.422 821.546C401.878 821.546 402.25 821.69 402.538 821.978C402.838 822.254 402.988 822.608 402.988 823.04C402.988 823.472 402.838 823.832 402.538 824.12C402.25 824.396 401.878 824.534 401.422 824.534C400.966 824.534 400.594 824.396 400.306 824.12C400.018 823.832 399.874 823.472 399.874 823.04C399.874 822.608 400.018 822.254 400.306 821.978C400.594 821.69 400.966 821.546 401.422 821.546ZM409.256 826.172C410.684 826.172 411.8 826.622 412.604 827.522C413.408 828.41 413.81 829.646 413.81 831.23C413.81 832.238 413.624 833.126 413.252 833.894C412.892 834.65 412.364 835.238 411.668 835.658C410.984 836.078 410.174 836.288 409.238 836.288C407.81 836.288 406.688 835.844 405.872 834.956C405.068 834.056 404.666 832.814 404.666 831.23C404.666 830.222 404.846 829.34 405.206 828.584C405.578 827.816 406.106 827.222 406.79 826.802C407.486 826.382 408.308 826.172 409.256 826.172ZM409.256 828.08C408.608 828.08 408.122 828.338 407.798 828.854C407.486 829.358 407.33 830.15 407.33 831.23C407.33 832.31 407.486 833.108 407.798 833.624C408.122 834.128 408.602 834.38 409.238 834.38C409.874 834.38 410.348 834.128 410.66 833.624C410.984 833.108 411.146 832.31 411.146 831.23C411.146 830.15 410.99 829.358 410.678 828.854C410.366 828.338 409.892 828.08 409.256 828.08ZM421.082 826.172C421.922 826.172 422.576 826.43 423.044 826.946C423.512 827.45 423.746 828.152 423.746 829.052V836H421.19V829.484C421.19 828.968 421.1 828.608 420.92 828.404C420.752 828.188 420.494 828.08 420.146 828.08C419.786 828.08 419.456 828.194 419.156 828.422C418.868 828.638 418.586 828.968 418.31 829.412V836H415.754V826.46H417.968L418.166 827.666C418.562 827.174 418.994 826.802 419.462 826.55C419.942 826.298 420.482 826.172 421.082 826.172ZM438.889 823.544L438.601 825.614H435.451V836H432.805V825.614H429.493V823.544H438.889ZM442.744 826.46V836H440.188V826.46H442.744ZM441.448 821.546C441.904 821.546 442.276 821.69 442.564 821.978C442.864 822.254 443.014 822.608 443.014 823.04C443.014 823.472 442.864 823.832 442.564 824.12C442.276 824.396 441.904 824.534 441.448 824.534C440.992 824.534 440.62 824.396 440.332 824.12C440.044 823.832 439.9 823.472 439.9 823.04C439.9 822.608 440.044 822.254 440.332 821.978C440.62 821.69 440.992 821.546 441.448 821.546ZM450.974 835.55C450.626 835.79 450.23 835.97 449.786 836.09C449.354 836.222 448.922 836.288 448.49 836.288C447.506 836.276 446.762 835.994 446.258 835.442C445.754 834.89 445.502 834.08 445.502 833.012V828.26H444.08V826.46H445.502V824.372L448.058 824.066V826.46H450.254L450.002 828.26H448.058V832.958C448.058 833.414 448.136 833.744 448.292 833.948C448.448 834.152 448.688 834.254 449.012 834.254C449.336 834.254 449.696 834.146 450.092 833.93L450.974 835.55ZM454.306 836.288C453.526 836.288 452.92 836.066 452.488 835.622C452.056 835.166 451.84 834.524 451.84 833.696V822.662L454.396 822.374V833.624C454.396 834.044 454.57 834.254 454.918 834.254C455.11 834.254 455.278 834.218 455.422 834.146L455.944 835.964C455.452 836.18 454.906 836.288 454.306 836.288ZM465.232 831.014C465.232 831.134 465.214 831.464 465.178 832.004H459.22C459.304 832.868 459.538 833.48 459.922 833.84C460.306 834.2 460.828 834.38 461.488 834.38C461.896 834.38 462.28 834.314 462.64 834.182C463 834.05 463.39 833.84 463.81 833.552L464.872 834.992C463.804 835.856 462.598 836.288 461.254 836.288C459.754 836.288 458.602 835.838 457.798 834.938C456.994 834.038 456.592 832.82 456.592 831.284C456.592 830.312 456.76 829.442 457.096 828.674C457.444 827.894 457.942 827.282 458.59 826.838C459.25 826.394 460.03 826.172 460.93 826.172C462.286 826.172 463.342 826.598 464.098 827.45C464.854 828.302 465.232 829.49 465.232 831.014ZM462.694 830.294C462.694 828.71 462.124 827.918 460.984 827.918C460.456 827.918 460.042 828.116 459.742 828.512C459.454 828.896 459.28 829.526 459.22 830.402H462.694V830.294Z" /> <!-- Sub-title -->
            <rect x="350" y="809" width="72" height="5" fill="#3AADAA" />
            <!-- Text -->
            <rect x="350.162" y="852.454" width="254" height="5" fill="#000" fill-opacity="0.33" />
            <rect x="350.162" y="862.454" width="233.563" height="5" fill="#000" fill-opacity="0.33" />
            <rect x="350.162" y="872.454" width="175.172" height="5" fill="#000" fill-opacity="0.33" />
            <rect x="350.162" y="882.454" width="248.161" height="5" fill="#000" fill-opacity="0.33" />
            <rect x="350.162" y="892.454" width="191.23" height="5" fill="#000" fill-opacity="0.33" />
            <!-- Button -->
            <rect width="66" height="20" transform="translate(350.162 916.454)" fill="#3AADAA" />
            <!-- Image+Shape-->
            <g>
                <rect x="68" y="790" width="173" height="144" fill="#383E45" />
                <path d="M263 801H81V966L263 930.144V801Z" fill="url(#theme_alan_s_image_text_default_image_id)" class="img_reference_s_image_text_default_image" />/&gt;
                <path d="M209.418 934.9H210.836L210.127 936.124L209.418 937.347L208.709 936.124L208 934.9H209.418Z" fill="#3AADAA" />
                <rect x="208" y="934" width="3" height="3" fill="#3AADAA" />
                <rect x="208" y="948" width="3" height="3" fill="#3AADAA" />
                <rect x="208" y="962" width="3" height="3" fill="#3AADAA" />
                <rect x="224" y="934" width="3" height="3" fill="#3AADAA" />
                <rect x="224" y="948" width="3" height="3" fill="#3AADAA" />
                <rect x="224" y="962" width="3" height="3" fill="#3AADAA" />
                <rect x="240" y="934" width="3" height="3" fill="#3AADAA" />
                <rect x="240" y="948" width="3" height="3" fill="#3AADAA" />
                <rect x="240" y="962" width="3" height="3" fill="#3AADAA" />
                <rect x="256" y="934" width="3" height="3" fill="#3AADAA" />
                <rect x="256" y="948" width="3" height="3" fill="#3AADAA" />
                <rect x="256" y="962" width="3" height="3" fill="#3AADAA" />
            </g>
        </g>
        <g class="s_picture" style="&#10;    transform: translateY(340px);&#10;">
            <!-- Background Image -->
            <rect y="1056" width="700" height="370" fill="url(#theme_alan_s_picture_default_image_id)" class="img_reference_s_picture_default_image" />
            <!-- Filter -->
            <rect y="1056" width="700" height="370" fill="#000" fill-opacity="0.5" />
            <!-- Title -->
            <path fill="#FFFFFD" d="M293.78 1111L293 1107.9H288.66L287.88 1111H284.82L289.08 1097.16H292.66L296.9 1111H293.78ZM289.22 1105.72H292.44L290.82 1099.34L289.22 1105.72ZM306.522 1100.08C308.015 1100.08 309.295 1100.51 310.362 1101.36L309.282 1102.98C308.388 1102.42 307.508 1102.14 306.642 1102.14C306.175 1102.14 305.815 1102.23 305.562 1102.4C305.308 1102.57 305.182 1102.81 305.182 1103.1C305.182 1103.31 305.235 1103.49 305.342 1103.64C305.462 1103.79 305.675 1103.93 305.982 1104.06C306.302 1104.19 306.775 1104.35 307.402 1104.54C308.522 1104.85 309.355 1105.26 309.902 1105.78C310.448 1106.29 310.722 1106.99 310.722 1107.88C310.722 1108.59 310.515 1109.2 310.102 1109.72C309.702 1110.24 309.155 1110.64 308.462 1110.92C307.768 1111.19 306.995 1111.32 306.142 1111.32C305.248 1111.32 304.435 1111.19 303.702 1110.92C302.968 1110.64 302.342 1110.26 301.822 1109.78L303.222 1108.22C304.115 1108.91 305.062 1109.26 306.062 1109.26C306.595 1109.26 307.015 1109.16 307.322 1108.96C307.642 1108.75 307.802 1108.46 307.802 1108.1C307.802 1107.82 307.742 1107.6 307.622 1107.44C307.502 1107.28 307.282 1107.13 306.962 1107C306.642 1106.85 306.142 1106.69 305.462 1106.5C304.395 1106.21 303.602 1105.79 303.082 1105.26C302.575 1104.71 302.322 1104.04 302.322 1103.24C302.322 1102.64 302.495 1102.1 302.842 1101.62C303.188 1101.14 303.675 1100.77 304.302 1100.5C304.942 1100.22 305.682 1100.08 306.522 1100.08ZM321.532 1105.46C321.532 1105.59 321.512 1105.96 321.472 1106.56H314.852C314.945 1107.52 315.205 1108.2 315.632 1108.6C316.059 1109 316.639 1109.2 317.372 1109.2C317.825 1109.2 318.252 1109.13 318.652 1108.98C319.052 1108.83 319.485 1108.6 319.952 1108.28L321.132 1109.88C319.945 1110.84 318.605 1111.32 317.112 1111.32C315.445 1111.32 314.165 1110.82 313.272 1109.82C312.379 1108.82 311.932 1107.47 311.932 1105.76C311.932 1104.68 312.119 1103.71 312.492 1102.86C312.879 1101.99 313.432 1101.31 314.152 1100.82C314.885 1100.33 315.752 1100.08 316.752 1100.08C318.259 1100.08 319.432 1100.55 320.272 1101.5C321.112 1102.45 321.532 1103.77 321.532 1105.46ZM318.712 1104.66C318.712 1102.9 318.079 1102.02 316.812 1102.02C316.225 1102.02 315.765 1102.24 315.432 1102.68C315.112 1103.11 314.919 1103.81 314.852 1104.78H318.712V1104.66ZM328.008 1100.08C328.714 1100.08 329.348 1100.19 329.908 1100.4C330.481 1100.6 331.021 1100.92 331.528 1101.36L330.288 1103.04C329.941 1102.77 329.601 1102.58 329.268 1102.46C328.948 1102.34 328.594 1102.28 328.208 1102.28C326.701 1102.28 325.948 1103.44 325.948 1105.76C325.948 1106.93 326.141 1107.77 326.528 1108.28C326.914 1108.79 327.468 1109.04 328.188 1109.04C328.561 1109.04 328.901 1108.99 329.208 1108.88C329.514 1108.76 329.874 1108.57 330.288 1108.3L331.528 1110.08C330.514 1110.91 329.354 1111.32 328.048 1111.32C327.008 1111.32 326.101 1111.09 325.328 1110.64C324.568 1110.19 323.981 1109.55 323.568 1108.72C323.154 1107.88 322.948 1106.9 322.948 1105.78C322.948 1104.66 323.154 1103.67 323.568 1102.82C323.981 1101.95 324.568 1101.28 325.328 1100.8C326.101 1100.32 326.994 1100.08 328.008 1100.08ZM339.478 1110.5C339.092 1110.77 338.652 1110.97 338.158 1111.1C337.678 1111.25 337.198 1111.32 336.718 1111.32C335.625 1111.31 334.798 1110.99 334.238 1110.38C333.678 1109.77 333.398 1108.87 333.398 1107.68V1102.4H331.818V1100.4H333.398V1098.08L336.238 1097.74V1100.4H338.678L338.398 1102.4H336.238V1107.62C336.238 1108.13 336.325 1108.49 336.498 1108.72C336.672 1108.95 336.938 1109.06 337.298 1109.06C337.658 1109.06 338.058 1108.94 338.498 1108.7L339.478 1110.5ZM343.576 1100.4V1111H340.736V1100.4H343.576ZM342.136 1094.94C342.643 1094.94 343.056 1095.1 343.376 1095.42C343.709 1095.73 343.876 1096.12 343.876 1096.6C343.876 1097.08 343.709 1097.48 343.376 1097.8C343.056 1098.11 342.643 1098.26 342.136 1098.26C341.629 1098.26 341.216 1098.11 340.896 1097.8C340.576 1097.48 340.416 1097.08 340.416 1096.6C340.416 1096.12 340.576 1095.73 340.896 1095.42C341.216 1095.1 341.629 1094.94 342.136 1094.94ZM350.84 1100.08C352.427 1100.08 353.667 1100.58 354.56 1101.58C355.454 1102.57 355.9 1103.94 355.9 1105.7C355.9 1106.82 355.694 1107.81 355.28 1108.66C354.88 1109.5 354.294 1110.15 353.52 1110.62C352.76 1111.09 351.86 1111.32 350.82 1111.32C349.234 1111.32 347.987 1110.83 347.08 1109.84C346.187 1108.84 345.74 1107.46 345.74 1105.7C345.74 1104.58 345.94 1103.6 346.34 1102.76C346.754 1101.91 347.34 1101.25 348.1 1100.78C348.874 1100.31 349.787 1100.08 350.84 1100.08ZM350.84 1102.2C350.12 1102.2 349.58 1102.49 349.22 1103.06C348.874 1103.62 348.7 1104.5 348.7 1105.7C348.7 1106.9 348.874 1107.79 349.22 1108.36C349.58 1108.92 350.114 1109.2 350.82 1109.2C351.527 1109.2 352.054 1108.92 352.4 1108.36C352.76 1107.79 352.94 1106.9 352.94 1105.7C352.94 1104.5 352.767 1103.62 352.42 1103.06C352.074 1102.49 351.547 1102.2 350.84 1102.2ZM363.98 1100.08C364.913 1100.08 365.64 1100.37 366.16 1100.94C366.68 1101.5 366.94 1102.28 366.94 1103.28V1111H364.1V1103.76C364.1 1103.19 364 1102.79 363.8 1102.56C363.613 1102.32 363.327 1102.2 362.94 1102.2C362.54 1102.2 362.173 1102.33 361.84 1102.58C361.52 1102.82 361.207 1103.19 360.9 1103.68V1111H358.06V1100.4H360.52L360.74 1101.74C361.18 1101.19 361.66 1100.78 362.18 1100.5C362.713 1100.22 363.313 1100.08 363.98 1100.08ZM383.765 1097.16L383.445 1099.46H379.945V1111H377.005V1099.46H373.325V1097.16H383.765ZM388.049 1100.4V1111H385.209V1100.4H388.049ZM386.609 1094.94C387.115 1094.94 387.529 1095.1 387.849 1095.42C388.182 1095.73 388.349 1096.12 388.349 1096.6C388.349 1097.08 388.182 1097.48 387.849 1097.8C387.529 1098.11 387.115 1098.26 386.609 1098.26C386.102 1098.26 385.689 1098.11 385.369 1097.8C385.049 1097.48 384.889 1097.08 384.889 1096.6C384.889 1096.12 385.049 1095.73 385.369 1095.42C385.689 1095.1 386.102 1094.94 386.609 1094.94ZM397.193 1110.5C396.806 1110.77 396.366 1110.97 395.873 1111.1C395.393 1111.25 394.913 1111.32 394.433 1111.32C393.34 1111.31 392.513 1110.99 391.953 1110.38C391.393 1109.77 391.113 1108.87 391.113 1107.68V1102.4H389.533V1100.4H391.113V1098.08L393.953 1097.74V1100.4H396.393L396.113 1102.4H393.953V1107.62C393.953 1108.13 394.04 1108.49 394.213 1108.72C394.386 1108.95 394.653 1109.06 395.013 1109.06C395.373 1109.06 395.773 1108.94 396.213 1108.7L397.193 1110.5ZM400.895 1111.32C400.029 1111.32 399.355 1111.07 398.875 1110.58C398.395 1110.07 398.155 1109.36 398.155 1108.44V1096.18L400.995 1095.86V1108.36C400.995 1108.83 401.189 1109.06 401.575 1109.06C401.789 1109.06 401.975 1109.02 402.135 1108.94L402.715 1110.96C402.169 1111.2 401.562 1111.32 400.895 1111.32ZM413.036 1105.46C413.036 1105.59 413.016 1105.96 412.976 1106.56H406.356C406.449 1107.52 406.709 1108.2 407.136 1108.6C407.562 1109 408.142 1109.2 408.876 1109.2C409.329 1109.2 409.756 1109.13 410.156 1108.98C410.556 1108.83 410.989 1108.6 411.456 1108.28L412.636 1109.88C411.449 1110.84 410.109 1111.32 408.616 1111.32C406.949 1111.32 405.669 1110.82 404.776 1109.82C403.882 1108.82 403.436 1107.47 403.436 1105.76C403.436 1104.68 403.622 1103.71 403.996 1102.86C404.382 1101.99 404.936 1101.31 405.656 1100.82C406.389 1100.33 407.256 1100.08 408.256 1100.08C409.762 1100.08 410.936 1100.55 411.776 1101.5C412.616 1102.45 413.036 1103.77 413.036 1105.46ZM410.216 1104.66C410.216 1102.9 409.582 1102.02 408.316 1102.02C407.729 1102.02 407.269 1102.24 406.936 1102.68C406.616 1103.11 406.422 1103.81 406.356 1104.78H410.216V1104.66Z" />
            <!-- Text -->
            <rect x="237" y="1129" width="226" height="7" fill="#FFFFFD" fill-opacity="0.66" />
            <rect x="259" y="1144" width="180" height="7" fill="#FFFFFD" fill-opacity="0.66" />
            <rect x="114" y="1390" width="472" height="7" fill="#FFFFFD" fill-opacity="0.66" />
        </g>
        <g class="s_masonry" style="&#10;    transform: translateY(-409px);&#10;">
            <!-- Background Image -->
            <rect y="1651" width="700" height="154" fill="#383E45" />
            <!-- Image Left -->
            <rect x="350" y="1426" width="350" height="225" fill="url(#theme_alan_s_masonry_block_default_image_1_id)" class="img_reference_s_masonry_block_default_image_1" />
            <rect x="177" y="1426" width="174" height="112.5" fill="#F6F6F6" />
            <path fill="#000" d="M230.815 1475.54L230.527 1477.47H226.027V1480.71H229.951V1482.62H226.027V1486.06H230.851V1488H223.381V1475.54H230.815ZM237.989 1478.17C238.829 1478.17 239.483 1478.43 239.951 1478.95C240.419 1479.45 240.653 1480.15 240.653 1481.05V1488H238.097V1481.48C238.097 1480.97 238.007 1480.61 237.827 1480.4C237.659 1480.19 237.401 1480.08 237.053 1480.08C236.693 1480.08 236.363 1480.19 236.063 1480.42C235.775 1480.64 235.493 1480.97 235.217 1481.41V1488H232.661V1478.46H234.875L235.073 1479.67C235.469 1479.17 235.901 1478.8 236.369 1478.55C236.849 1478.3 237.389 1478.17 237.989 1478.17ZM248.791 1487.55C248.443 1487.79 248.047 1487.97 247.603 1488.09C247.171 1488.22 246.739 1488.29 246.307 1488.29C245.323 1488.28 244.579 1487.99 244.075 1487.44C243.571 1486.89 243.319 1486.08 243.319 1485.01V1480.26H241.897V1478.46H243.319V1476.37L245.875 1476.07V1478.46H248.071L247.819 1480.26H245.875V1484.96C245.875 1485.41 245.953 1485.74 246.109 1485.95C246.265 1486.15 246.505 1486.25 246.829 1486.25C247.153 1486.25 247.513 1486.15 247.909 1485.93L248.791 1487.55ZM254.855 1478.19C255.143 1478.19 255.461 1478.24 255.809 1478.33L255.377 1480.8C255.041 1480.72 254.759 1480.67 254.531 1480.67C253.967 1480.67 253.529 1480.87 253.217 1481.27C252.905 1481.66 252.659 1482.26 252.479 1483.07V1488H249.923V1478.46H252.137L252.371 1480.31C252.599 1479.64 252.929 1479.12 253.361 1478.75C253.805 1478.38 254.303 1478.19 254.855 1478.19ZM261.991 1488.02C261.607 1489.23 261.001 1490.17 260.173 1490.83C259.357 1491.49 258.247 1491.86 256.843 1491.96L256.573 1490.12C257.485 1490 258.151 1489.79 258.571 1489.48C259.003 1489.16 259.357 1488.67 259.633 1488H258.751L255.781 1478.46H258.499L260.407 1486.34L262.423 1478.46H265.069L261.991 1488.02ZM278.999 1475.54L278.711 1477.61H275.561V1488H272.915V1477.61H269.603V1475.54H278.999ZM282.854 1478.46V1488H280.298V1478.46H282.854ZM281.558 1473.55C282.014 1473.55 282.386 1473.69 282.674 1473.98C282.974 1474.25 283.124 1474.61 283.124 1475.04C283.124 1475.47 282.974 1475.83 282.674 1476.12C282.386 1476.4 282.014 1476.53 281.558 1476.53C281.102 1476.53 280.73 1476.4 280.442 1476.12C280.154 1475.83 280.01 1475.47 280.01 1475.04C280.01 1474.61 280.154 1474.25 280.442 1473.98C280.73 1473.69 281.102 1473.55 281.558 1473.55ZM291.084 1487.55C290.736 1487.79 290.34 1487.97 289.896 1488.09C289.464 1488.22 289.032 1488.29 288.6 1488.29C287.616 1488.28 286.872 1487.99 286.368 1487.44C285.864 1486.89 285.612 1486.08 285.612 1485.01V1480.26H284.19V1478.46H285.612V1476.37L288.168 1476.07V1478.46H290.364L290.112 1480.26H288.168V1484.96C288.168 1485.41 288.246 1485.74 288.402 1485.95C288.558 1486.15 288.798 1486.25 289.122 1486.25C289.446 1486.25 289.806 1486.15 290.202 1485.93L291.084 1487.55ZM294.416 1488.29C293.636 1488.29 293.03 1488.07 292.598 1487.62C292.166 1487.17 291.95 1486.52 291.95 1485.7V1474.66L294.506 1474.37V1485.62C294.506 1486.04 294.68 1486.25 295.028 1486.25C295.22 1486.25 295.388 1486.22 295.532 1486.15L296.054 1487.96C295.562 1488.18 295.016 1488.29 294.416 1488.29ZM305.343 1483.01C305.343 1483.13 305.325 1483.46 305.289 1484H299.331C299.415 1484.87 299.649 1485.48 300.033 1485.84C300.417 1486.2 300.939 1486.38 301.599 1486.38C302.007 1486.38 302.391 1486.31 302.751 1486.18C303.111 1486.05 303.501 1485.84 303.921 1485.55L304.983 1486.99C303.915 1487.86 302.709 1488.29 301.365 1488.29C299.865 1488.29 298.713 1487.84 297.909 1486.94C297.105 1486.04 296.703 1484.82 296.703 1483.28C296.703 1482.31 296.871 1481.44 297.207 1480.67C297.555 1479.89 298.053 1479.28 298.701 1478.84C299.361 1478.39 300.141 1478.17 301.041 1478.17C302.397 1478.17 303.453 1478.6 304.209 1479.45C304.965 1480.3 305.343 1481.49 305.343 1483.01ZM302.805 1482.29C302.805 1480.71 302.235 1479.92 301.095 1479.92C300.567 1479.92 300.153 1480.12 299.853 1480.51C299.565 1480.9 299.391 1481.53 299.331 1482.4H302.805V1482.29Z" />
            <rect x="177" y="1539" width="174" height="112" fill="#3AADAA" />
            <path fill="#FFFFFD" d="M230.815 1588.54L230.527 1590.47H226.027V1593.71H229.951V1595.62H226.027V1599.06H230.851V1601H223.381V1588.54H230.815ZM237.989 1591.17C238.829 1591.17 239.483 1591.43 239.951 1591.95C240.419 1592.45 240.653 1593.15 240.653 1594.05V1601H238.097V1594.48C238.097 1593.97 238.007 1593.61 237.827 1593.4C237.659 1593.19 237.401 1593.08 237.053 1593.08C236.693 1593.08 236.363 1593.19 236.063 1593.42C235.775 1593.64 235.493 1593.97 235.217 1594.41V1601H232.661V1591.46H234.875L235.073 1592.67C235.469 1592.17 235.901 1591.8 236.369 1591.55C236.849 1591.3 237.389 1591.17 237.989 1591.17ZM248.791 1600.55C248.443 1600.79 248.047 1600.97 247.603 1601.09C247.171 1601.22 246.739 1601.29 246.307 1601.29C245.323 1601.28 244.579 1600.99 244.075 1600.44C243.571 1599.89 243.319 1599.08 243.319 1598.01V1593.26H241.897V1591.46H243.319V1589.37L245.875 1589.07V1591.46H248.071L247.819 1593.26H245.875V1597.96C245.875 1598.41 245.953 1598.74 246.109 1598.95C246.265 1599.15 246.505 1599.25 246.829 1599.25C247.153 1599.25 247.513 1599.15 247.909 1598.93L248.791 1600.55ZM254.855 1591.19C255.143 1591.19 255.461 1591.24 255.809 1591.33L255.377 1593.8C255.041 1593.72 254.759 1593.67 254.531 1593.67C253.967 1593.67 253.529 1593.87 253.217 1594.27C252.905 1594.66 252.659 1595.26 252.479 1596.07V1601H249.923V1591.46H252.137L252.371 1593.31C252.599 1592.64 252.929 1592.12 253.361 1591.75C253.805 1591.38 254.303 1591.19 254.855 1591.19ZM261.991 1601.02C261.607 1602.23 261.001 1603.17 260.173 1603.83C259.357 1604.49 258.247 1604.86 256.843 1604.96L256.573 1603.12C257.485 1603 258.151 1602.79 258.571 1602.48C259.003 1602.16 259.357 1601.67 259.633 1601H258.751L255.781 1591.46H258.499L260.407 1599.34L262.423 1591.46H265.069L261.991 1601.02ZM278.999 1588.54L278.711 1590.61H275.561V1601H272.915V1590.61H269.603V1588.54H278.999ZM282.854 1591.46V1601H280.298V1591.46H282.854ZM281.558 1586.55C282.014 1586.55 282.386 1586.69 282.674 1586.98C282.974 1587.25 283.124 1587.61 283.124 1588.04C283.124 1588.47 282.974 1588.83 282.674 1589.12C282.386 1589.4 282.014 1589.53 281.558 1589.53C281.102 1589.53 280.73 1589.4 280.442 1589.12C280.154 1588.83 280.01 1588.47 280.01 1588.04C280.01 1587.61 280.154 1587.25 280.442 1586.98C280.73 1586.69 281.102 1586.55 281.558 1586.55ZM291.084 1600.55C290.736 1600.79 290.34 1600.97 289.896 1601.09C289.464 1601.22 289.032 1601.29 288.6 1601.29C287.616 1601.28 286.872 1600.99 286.368 1600.44C285.864 1599.89 285.612 1599.08 285.612 1598.01V1593.26H284.19V1591.46H285.612V1589.37L288.168 1589.07V1591.46H290.364L290.112 1593.26H288.168V1597.96C288.168 1598.41 288.246 1598.74 288.402 1598.95C288.558 1599.15 288.798 1599.25 289.122 1599.25C289.446 1599.25 289.806 1599.15 290.202 1598.93L291.084 1600.55ZM294.416 1601.29C293.636 1601.29 293.03 1601.07 292.598 1600.62C292.166 1600.17 291.95 1599.52 291.95 1598.7V1587.66L294.506 1587.37V1598.62C294.506 1599.04 294.68 1599.25 295.028 1599.25C295.22 1599.25 295.388 1599.22 295.532 1599.15L296.054 1600.96C295.562 1601.18 295.016 1601.29 294.416 1601.29ZM305.343 1596.01C305.343 1596.13 305.325 1596.46 305.289 1597H299.331C299.415 1597.87 299.649 1598.48 300.033 1598.84C300.417 1599.2 300.939 1599.38 301.599 1599.38C302.007 1599.38 302.391 1599.31 302.751 1599.18C303.111 1599.05 303.501 1598.84 303.921 1598.55L304.983 1599.99C303.915 1600.86 302.709 1601.29 301.365 1601.29C299.865 1601.29 298.713 1600.84 297.909 1599.94C297.105 1599.04 296.703 1597.82 296.703 1596.28C296.703 1595.31 296.871 1594.44 297.207 1593.67C297.555 1592.89 298.053 1592.28 298.701 1591.84C299.361 1591.39 300.141 1591.17 301.041 1591.17C302.397 1591.17 303.453 1591.6 304.209 1592.45C304.965 1593.3 305.343 1594.49 305.343 1596.01ZM302.805 1595.29C302.805 1593.71 302.235 1592.92 301.095 1592.92C300.567 1592.92 300.153 1593.12 299.853 1593.51C299.565 1593.9 299.391 1594.53 299.331 1595.4H302.805V1595.29Z" />
            <rect y="1426" width="178" height="225" fill="url(#theme_alan_s_parallax_default_image_id)" class="img_reference_s_parallax_default_image" />
            <rect y="1651" width="700" height="154" fill="#383E45" />
        </g>
        <g class="s_call_to_action" style="&#10;    transform: translateY(-410px);&#10;">
            <!-- Background Image -->
            <rect y="1651" width="700" height="154" fill="#383E45" />
            <rect y="1651" width="700" height="154" fill="#000" fill-opacity=".20" />
            <!-- Shape -->
            <g clip-path="url(#clip1)">
                <path d="M846.873 1872.54C827.882 1872.54 806.145 1870.48 784.018 1866.62C746 1859.96 716.673 1849.43 688.314 1839.24C684.382 1837.83 680.318 1836.36 676.336 1834.96L673.609 1833.97C658.505 1828.52 644.241 1823.38 634.777 1817.57C623.091 1810.38 623.364 1804.72 624.909 1800.6C626.696 1795.81 631.941 1789.7 637.495 1783.23C644.768 1774.77 653 1765.18 657.495 1754.41C662.9 1741.45 661.782 1729.45 654.086 1717.72C640.527 1697.06 604.046 1674.85 574.736 1657.01C557.918 1646.78 538.9 1635.19 536.527 1630.5L536.482 1630.42C536.345 1630.16 536.705 1629.67 537.032 1629.3C539.641 1626.4 548.777 1621.89 566.577 1617.95C583.745 1614.24 601.507 1612.31 619.368 1612.24C630 1612.24 639.555 1613.01 647.773 1614.52C654.382 1615.74 660.432 1616.91 666.282 1618.03C688.1 1622.24 705.332 1625.56 722.346 1625.56C733.973 1625.56 744.946 1624.05 756.891 1620.82C770.7 1617.07 786.891 1615 802.541 1615C820.223 1615 832.191 1617.6 836.214 1620.18L836.3 1620.24C836.418 1620.35 837.446 1621.43 837.441 1626.02C837.441 1629.96 836.714 1634.97 835.873 1640.78C833.6 1656.57 830.459 1678.21 840.5 1696.69V1696.73C850.177 1714.15 871.023 1728.4 891.182 1742.19C908.268 1753.87 925.932 1765.94 935.727 1779.41C945.214 1792.65 947.85 1808.47 943.155 1823.93C938.609 1838.86 927.432 1852.03 912.45 1860.08C896.709 1868.35 874.636 1872.54 846.873 1872.54Z" stroke="#FFFFFF" stroke-width="2" />
                <path d="M941.746 1776.97C963.273 1807.02 950.223 1846.15 916.405 1864.29C882.109 1882.27 826.691 1879.35 782.473 1871.62C738.255 1863.88 705.45 1850.94 673.382 1839.6C641.691 1828.15 611.341 1817.85 618.309 1799.21C625.277 1780.58 669.923 1753.51 647.927 1720C625.932 1686.49 537.45 1646.8 530.132 1632.34C522.336 1617.71 601.496 1600.71 649.391 1609.54C697.286 1618.37 720.114 1625.33 754.568 1616C788.659 1606.76 829.159 1608.94 840.623 1616.3C852.441 1623.56 830.091 1664.01 846.795 1694.77C863.982 1725.7 919.736 1746.76 941.746 1776.97Z" stroke="#FFFFFF" stroke-width="4" />
                <path d="M846.873 1888.96C826.241 1888.96 802.782 1886.77 779.073 1882.62C738.745 1875.56 708.332 1864.63 678.918 1854.07C675.005 1852.66 670.959 1851.21 667.023 1849.81L664.173 1848.79C647.859 1842.91 632.45 1837.35 620.991 1830.31C613.718 1825.86 608.718 1821.19 605.677 1816.08C601.923 1809.78 601.327 1803.08 603.914 1796.16C606.596 1788.99 612.709 1781.87 619.182 1774.33C626 1766.38 633.077 1758.15 636.677 1749.51C640.368 1740.66 639.682 1732.87 634.527 1725.02C623.064 1707.57 588.636 1686.62 560.995 1669.79C534.545 1653.68 520.486 1644.86 516.164 1636.45C513.332 1631.05 514.318 1625.25 518.936 1620.1C525.432 1612.87 539.391 1606.85 560.418 1602.19C579.578 1598.02 599.417 1595.87 619.364 1595.81C631.741 1595.81 643.041 1596.74 652.959 1598.55C659.677 1599.79 665.786 1600.97 671.691 1602.11C692.818 1606.19 708.082 1609.13 722.341 1609.13C731.368 1609.13 739.991 1607.93 749.482 1605.36C765.605 1600.99 784.441 1598.59 802.527 1598.59C831.573 1598.59 844.855 1604.21 850.255 1607.62C861.618 1614.69 859.8 1627 857.568 1642.57C855.427 1657.39 852.759 1675.82 860.677 1690.45C868.495 1704.48 886.655 1716.89 905.877 1730.04C924.3 1742.63 943.35 1755.65 954.918 1771.54L954.964 1771.61C966.973 1788.37 970.345 1808.25 964.468 1827.61C958.677 1846.69 944.705 1862.98 925.127 1873.49L924.991 1873.55C905.455 1883.78 879.195 1888.96 846.873 1888.96Z" stroke="#FFFFFF" stroke-width="6" />
                <path d="M846.873 1872.54C827.882 1872.54 806.145 1870.48 784.018 1866.62C746 1859.96 716.673 1849.43 688.314 1839.24C684.382 1837.83 680.318 1836.36 676.336 1834.96L673.609 1833.97C658.505 1828.52 644.241 1823.38 634.777 1817.57C623.091 1810.38 623.364 1804.72 624.909 1800.6C626.696 1795.81 631.941 1789.7 637.495 1783.23C644.768 1774.77 653 1765.18 657.495 1754.41C662.9 1741.45 661.782 1729.45 654.086 1717.72C640.527 1697.06 604.046 1674.85 574.736 1657.01C557.918 1646.78 538.9 1635.19 536.527 1630.5L536.482 1630.42C536.345 1630.16 536.705 1629.67 537.032 1629.3C539.641 1626.4 548.777 1621.89 566.577 1617.95C583.745 1614.24 601.507 1612.31 619.368 1612.24C630 1612.24 639.555 1613.01 647.773 1614.52C654.382 1615.74 660.432 1616.91 666.282 1618.03C688.1 1622.24 705.332 1625.56 722.346 1625.56C733.973 1625.56 744.946 1624.05 756.891 1620.82C770.7 1617.07 786.891 1615 802.541 1615C820.223 1615 832.191 1617.6 836.214 1620.18L836.3 1620.24C836.418 1620.35 837.446 1621.43 837.441 1626.02C837.441 1629.96 836.714 1634.97 835.873 1640.78C833.6 1656.57 830.459 1678.21 840.5 1696.69V1696.73C850.177 1714.15 871.023 1728.4 891.182 1742.19C908.268 1753.87 925.932 1765.94 935.727 1779.41C945.214 1792.65 947.85 1808.47 943.155 1823.93C938.609 1838.86 927.432 1852.03 912.45 1860.08C896.709 1868.35 874.636 1872.54 846.873 1872.54Z" stroke="#FFFFFF" stroke-width="2" stroke-linecap="round" stroke-linejoin="round" />
                <path d="M941.746 1776.97C963.273 1807.02 950.223 1846.15 916.405 1864.29C882.109 1882.27 826.691 1879.35 782.473 1871.62C738.255 1863.88 705.45 1850.94 673.382 1839.6C641.691 1828.15 611.341 1817.85 618.309 1799.21C625.277 1780.58 669.923 1753.51 647.927 1720C625.932 1686.49 537.45 1646.8 530.132 1632.34C522.336 1617.71 601.496 1600.71 649.391 1609.54C697.286 1618.37 720.114 1625.33 754.568 1616C788.659 1606.76 829.159 1608.94 840.623 1616.3C852.441 1623.56 830.091 1664.01 846.795 1694.77C863.982 1725.7 919.736 1746.76 941.746 1776.97Z" stroke="#FFFFFF" stroke-width="5" stroke-miterlimit="10" stroke-linecap="round" />
                <path d="M846.873 1888.96C826.241 1888.96 802.782 1886.77 779.073 1882.62C738.745 1875.56 708.332 1864.63 678.918 1854.07C675.005 1852.66 670.959 1851.21 667.023 1849.81L664.173 1848.79C647.859 1842.91 632.45 1837.35 620.991 1830.31C613.718 1825.86 608.718 1821.19 605.677 1816.08C601.923 1809.78 601.327 1803.08 603.914 1796.16C606.596 1788.99 612.709 1781.87 619.182 1774.33C626 1766.38 633.077 1758.15 636.677 1749.51C640.368 1740.66 639.682 1732.87 634.527 1725.02C623.064 1707.57 588.636 1686.62 560.995 1669.79C534.545 1653.68 520.486 1644.86 516.164 1636.45C513.332 1631.05 514.318 1625.25 518.936 1620.1C525.432 1612.87 539.391 1606.85 560.418 1602.19C579.578 1598.02 599.417 1595.87 619.364 1595.81C631.741 1595.81 643.041 1596.74 652.959 1598.55C659.677 1599.79 665.786 1600.97 671.691 1602.11C692.818 1606.19 708.082 1609.13 722.341 1609.13C731.368 1609.13 739.991 1607.93 749.482 1605.36C765.605 1600.99 784.441 1598.59 802.527 1598.59C831.573 1598.59 844.855 1604.21 850.255 1607.62C861.618 1614.69 859.8 1627 857.568 1642.57C855.427 1657.39 852.759 1675.82 860.677 1690.45C868.496 1704.48 886.655 1716.89 905.877 1730.04C924.3 1742.63 943.35 1755.65 954.918 1771.54L954.964 1771.61C966.973 1788.37 970.345 1808.25 964.468 1827.61C958.677 1846.69 944.705 1862.98 925.127 1873.49L924.991 1873.55C905.455 1883.78 879.196 1888.96 846.873 1888.96Z" stroke="#FFFFFF" stroke-width="7" stroke-miterlimit="10" stroke-linecap="round" />
            </g>
            <!-- Title -->
            <path fill="#FFFFFD" d="M74.92 1706.84C75.7867 1706.84 76.54 1706.97 77.18 1707.22C77.82 1707.46 78.4467 1707.83 79.06 1708.34L77.6 1710.04C76.8 1709.39 75.96 1709.06 75.08 1709.06C74.0933 1709.06 73.3067 1709.47 72.72 1710.28C72.1467 1711.08 71.86 1712.34 71.86 1714.06C71.86 1715.74 72.1467 1716.99 72.72 1717.8C73.3067 1718.6 74.1 1719 75.1 1719C75.62 1719 76.0933 1718.91 76.52 1718.72C76.9467 1718.52 77.3933 1718.24 77.86 1717.88L79.22 1719.58C78.7267 1720.09 78.1133 1720.51 77.38 1720.84C76.66 1721.16 75.86 1721.32 74.98 1721.32C73.74 1721.32 72.6533 1721.04 71.72 1720.48C70.7867 1719.92 70.06 1719.1 69.54 1718.02C69.02 1716.93 68.76 1715.61 68.76 1714.06C68.76 1712.55 69.0267 1711.26 69.56 1710.18C70.0933 1709.09 70.8267 1708.26 71.76 1707.7C72.6933 1707.13 73.7467 1706.84 74.92 1706.84ZM88.7305 1718.06C88.7305 1718.47 88.7905 1718.78 88.9105 1718.98C89.0305 1719.17 89.2305 1719.31 89.5105 1719.4L88.9105 1721.28C88.2838 1721.23 87.7705 1721.08 87.3705 1720.84C86.9838 1720.6 86.6838 1720.23 86.4705 1719.72C85.7771 1720.79 84.7171 1721.32 83.2905 1721.32C82.2371 1721.32 81.3971 1721.02 80.7705 1720.42C80.1571 1719.81 79.8505 1719.01 79.8505 1718.04C79.8505 1716.88 80.2705 1715.99 81.1105 1715.38C81.9505 1714.77 83.1571 1714.46 84.7305 1714.46H85.9505V1713.94C85.9505 1713.29 85.8038 1712.83 85.5105 1712.58C85.2171 1712.33 84.7305 1712.2 84.0505 1712.2C83.3038 1712.2 82.3705 1712.39 81.2505 1712.76L80.6105 1710.86C81.9305 1710.34 83.2371 1710.08 84.5305 1710.08C85.9705 1710.08 87.0305 1710.39 87.7105 1711.02C88.3905 1711.63 88.7305 1712.55 88.7305 1713.78V1718.06ZM84.0705 1719.28C84.8705 1719.28 85.4971 1718.89 85.9505 1718.1V1716.08H85.0105C83.4771 1716.08 82.7105 1716.65 82.7105 1717.8C82.7105 1718.27 82.8238 1718.63 83.0505 1718.9C83.2905 1719.15 83.6305 1719.28 84.0705 1719.28ZM94.0127 1721.32C93.146 1721.32 92.4727 1721.07 91.9927 1720.58C91.5127 1720.07 91.2727 1719.36 91.2727 1718.44V1706.18L94.1127 1705.86V1718.36C94.1127 1718.83 94.306 1719.06 94.6927 1719.06C94.906 1719.06 95.0927 1719.02 95.2527 1718.94L95.8327 1720.96C95.286 1721.2 94.6793 1721.32 94.0127 1721.32ZM99.9306 1721.32C99.064 1721.32 98.3906 1721.07 97.9106 1720.58C97.4306 1720.07 97.1906 1719.36 97.1906 1718.44V1706.18L100.031 1705.86V1718.36C100.031 1718.83 100.224 1719.06 100.611 1719.06C100.824 1719.06 101.011 1719.02 101.171 1718.94L101.751 1720.96C101.204 1721.2 100.597 1721.32 99.9306 1721.32ZM102.573 1715.86V1713.62H108.773V1715.86H102.573ZM119.382 1707.16L119.062 1709.46H115.562V1721H112.622V1709.46H108.942V1707.16H119.382ZM124.192 1710.08C125.779 1710.08 127.019 1710.58 127.912 1711.58C128.805 1712.57 129.252 1713.94 129.252 1715.7C129.252 1716.82 129.045 1717.81 128.632 1718.66C128.232 1719.5 127.645 1720.15 126.872 1720.62C126.112 1721.09 125.212 1721.32 124.172 1721.32C122.585 1721.32 121.339 1720.83 120.432 1719.84C119.539 1718.84 119.092 1717.46 119.092 1715.7C119.092 1714.58 119.292 1713.6 119.692 1712.76C120.105 1711.91 120.692 1711.25 121.452 1710.78C122.225 1710.31 123.139 1710.08 124.192 1710.08ZM124.192 1712.2C123.472 1712.2 122.932 1712.49 122.572 1713.06C122.225 1713.62 122.052 1714.5 122.052 1715.7C122.052 1716.9 122.225 1717.79 122.572 1718.36C122.932 1718.92 123.465 1719.2 124.172 1719.2C124.879 1719.2 125.405 1718.92 125.752 1718.36C126.112 1717.79 126.292 1716.9 126.292 1715.7C126.292 1714.5 126.119 1713.62 125.772 1713.06C125.425 1712.49 124.899 1712.2 124.192 1712.2ZM130.972 1715.86V1713.62H137.172V1715.86H130.972ZM146.721 1721L145.941 1717.9H141.601L140.821 1721H137.761L142.021 1707.16H145.601L149.841 1721H146.721ZM142.161 1715.72H145.381L143.761 1709.34L142.161 1715.72ZM155.48 1710.08C156.187 1710.08 156.82 1710.19 157.38 1710.4C157.953 1710.6 158.493 1710.92 159 1711.36L157.76 1713.04C157.413 1712.77 157.073 1712.58 156.74 1712.46C156.42 1712.34 156.067 1712.28 155.68 1712.28C154.173 1712.28 153.42 1713.44 153.42 1715.76C153.42 1716.93 153.613 1717.77 154 1718.28C154.387 1718.79 154.94 1719.04 155.66 1719.04C156.033 1719.04 156.373 1718.99 156.68 1718.88C156.987 1718.76 157.347 1718.57 157.76 1718.3L159 1720.08C157.987 1720.91 156.827 1721.32 155.52 1721.32C154.48 1721.32 153.573 1721.09 152.8 1720.64C152.04 1720.19 151.453 1719.55 151.04 1718.72C150.627 1717.88 150.42 1716.9 150.42 1715.78C150.42 1714.66 150.627 1713.67 151.04 1712.82C151.453 1711.95 152.04 1711.28 152.8 1710.8C153.573 1710.32 154.467 1710.08 155.48 1710.08ZM166.951 1720.5C166.564 1720.77 166.124 1720.97 165.631 1721.1C165.151 1721.25 164.671 1721.32 164.191 1721.32C163.098 1721.31 162.271 1720.99 161.711 1720.38C161.151 1719.77 160.871 1718.87 160.871 1717.68V1712.4H159.291V1710.4H160.871V1708.08L163.711 1707.74V1710.4H166.151L165.871 1712.4H163.711V1717.62C163.711 1718.13 163.798 1718.49 163.971 1718.72C164.144 1718.95 164.411 1719.06 164.771 1719.06C165.131 1719.06 165.531 1718.94 165.971 1718.7L166.951 1720.5ZM171.049 1710.4V1721H168.209V1710.4H171.049ZM169.609 1704.94C170.115 1704.94 170.529 1705.1 170.849 1705.42C171.182 1705.73 171.349 1706.12 171.349 1706.6C171.349 1707.08 171.182 1707.48 170.849 1707.8C170.529 1708.11 170.115 1708.26 169.609 1708.26C169.102 1708.26 168.689 1708.11 168.369 1707.8C168.049 1707.48 167.889 1707.08 167.889 1706.6C167.889 1706.12 168.049 1705.73 168.369 1705.42C168.689 1705.1 169.102 1704.94 169.609 1704.94ZM178.313 1710.08C179.9 1710.08 181.14 1710.58 182.033 1711.58C182.926 1712.57 183.373 1713.94 183.373 1715.7C183.373 1716.82 183.166 1717.81 182.753 1718.66C182.353 1719.5 181.766 1720.15 180.993 1720.62C180.233 1721.09 179.333 1721.32 178.293 1721.32C176.706 1721.32 175.46 1720.83 174.553 1719.84C173.66 1718.84 173.213 1717.46 173.213 1715.7C173.213 1714.58 173.413 1713.6 173.813 1712.76C174.226 1711.91 174.813 1711.25 175.573 1710.78C176.346 1710.31 177.26 1710.08 178.313 1710.08ZM178.313 1712.2C177.593 1712.2 177.053 1712.49 176.693 1713.06C176.346 1713.62 176.173 1714.5 176.173 1715.7C176.173 1716.9 176.346 1717.79 176.693 1718.36C177.053 1718.92 177.586 1719.2 178.293 1719.2C179 1719.2 179.526 1718.92 179.873 1718.36C180.233 1717.79 180.413 1716.9 180.413 1715.7C180.413 1714.5 180.24 1713.62 179.893 1713.06C179.546 1712.49 179.02 1712.2 178.313 1712.2ZM191.453 1710.08C192.386 1710.08 193.113 1710.37 193.633 1710.94C194.153 1711.5 194.413 1712.28 194.413 1713.28V1721H191.573V1713.76C191.573 1713.19 191.473 1712.79 191.273 1712.56C191.086 1712.32 190.799 1712.2 190.413 1712.2C190.013 1712.2 189.646 1712.33 189.313 1712.58C188.993 1712.82 188.679 1713.19 188.373 1713.68V1721H185.533V1710.4H187.993L188.213 1711.74C188.653 1711.19 189.133 1710.78 189.653 1710.5C190.186 1710.22 190.786 1710.08 191.453 1710.08ZM211.238 1707.16L210.918 1709.46H207.418V1721H204.478V1709.46H200.798V1707.16H211.238ZM215.521 1710.4V1721H212.681V1710.4H215.521ZM214.081 1704.94C214.588 1704.94 215.001 1705.1 215.321 1705.42C215.655 1705.73 215.821 1706.12 215.821 1706.6C215.821 1707.08 215.655 1707.48 215.321 1707.8C215.001 1708.11 214.588 1708.26 214.081 1708.26C213.575 1708.26 213.161 1708.11 212.841 1707.8C212.521 1707.48 212.361 1707.08 212.361 1706.6C212.361 1706.12 212.521 1705.73 212.841 1705.42C213.161 1705.1 213.575 1704.94 214.081 1704.94ZM224.666 1720.5C224.279 1720.77 223.839 1720.97 223.346 1721.1C222.866 1721.25 222.386 1721.32 221.906 1721.32C220.812 1721.31 219.986 1720.99 219.426 1720.38C218.866 1719.77 218.586 1718.87 218.586 1717.68V1712.4H217.006V1710.4H218.586V1708.08L221.426 1707.74V1710.4H223.866L223.586 1712.4H221.426V1717.62C221.426 1718.13 221.512 1718.49 221.686 1718.72C221.859 1718.95 222.126 1719.06 222.486 1719.06C222.846 1719.06 223.246 1718.94 223.686 1718.7L224.666 1720.5ZM228.368 1721.32C227.501 1721.32 226.828 1721.07 226.348 1720.58C225.868 1720.07 225.628 1719.36 225.628 1718.44V1706.18L228.468 1705.86V1718.36C228.468 1718.83 228.661 1719.06 229.048 1719.06C229.261 1719.06 229.448 1719.02 229.608 1718.94L230.188 1720.96C229.641 1721.2 229.035 1721.32 228.368 1721.32ZM240.508 1715.46C240.508 1715.59 240.488 1715.96 240.448 1716.56H233.828C233.922 1717.52 234.182 1718.2 234.608 1718.6C235.035 1719 235.615 1719.2 236.348 1719.2C236.802 1719.2 237.228 1719.13 237.628 1718.98C238.028 1718.83 238.462 1718.6 238.928 1718.28L240.108 1719.88C238.922 1720.84 237.582 1721.32 236.088 1721.32C234.422 1721.32 233.142 1720.82 232.248 1719.82C231.355 1718.82 230.908 1717.47 230.908 1715.76C230.908 1714.68 231.095 1713.71 231.468 1712.86C231.855 1711.99 232.408 1711.31 233.128 1710.82C233.862 1710.33 234.728 1710.08 235.728 1710.08C237.235 1710.08 238.408 1710.55 239.248 1711.5C240.088 1712.45 240.508 1713.77 240.508 1715.46ZM237.688 1714.66C237.688 1712.9 237.055 1712.02 235.788 1712.02C235.202 1712.02 234.742 1712.24 234.408 1712.68C234.088 1713.11 233.895 1713.81 233.828 1714.78H237.688V1714.66Z" />
            <!-- Text -->
            <rect x="68" y="1739" width="176" height="5" fill="#FFF" fill-opacity="0.6" />
            <rect x="68" y="1749" width="195" height="5" fill="#FFF" fill-opacity="0.6" />
            <!-- Button -->
            <rect width="75" height="24" transform="translate(510 1716)" fill="#3AADAA" />
        </g>
        <g class="svgc_footer">
            <!-- Menu Background -->
            <rect y="1805" width="700" height="45" class="svgc_footer_bg" fill="#FOOTER_COLOR" />
            <!-- Logo -->
            <path opacity="1" fill="#FOOTER_COLOR" class="svgc_text" d="M71.74 1821.24V1830.99H76.398L76.126 1833H69.241V1821.24H71.74ZM81.8009 1820.96C82.8776 1820.96 83.8069 1821.21 84.5889 1821.69C85.3709 1822.17 85.9716 1822.87 86.3909 1823.79C86.8103 1824.7 87.0199 1825.81 87.0199 1827.12C87.0199 1828.4 86.8103 1829.5 86.3909 1830.43C85.9716 1831.35 85.3709 1832.05 84.5889 1832.54C83.8069 1833.03 82.8776 1833.27 81.8009 1833.27C80.7243 1833.27 79.7893 1833.03 78.9959 1832.56C78.2139 1832.07 77.6133 1831.37 77.1939 1830.45C76.7746 1829.52 76.5649 1828.41 76.5649 1827.12C76.5649 1825.85 76.7746 1824.75 77.1939 1823.84C77.6246 1822.91 78.2309 1822.2 79.0129 1821.71C79.8063 1821.21 80.7356 1820.96 81.8009 1820.96ZM81.8009 1822.83C80.9396 1822.83 80.2879 1823.17 79.8459 1823.85C79.4153 1824.53 79.1999 1825.62 79.1999 1827.12C79.1999 1828.61 79.4209 1829.7 79.8629 1830.38C80.3049 1831.06 80.9509 1831.4 81.8009 1831.4C82.6623 1831.4 83.3083 1831.07 83.7389 1830.4C84.1696 1829.72 84.3849 1828.63 84.3849 1827.12C84.3849 1825.61 84.1696 1824.52 83.7389 1823.85C83.3083 1823.17 82.6623 1822.83 81.8009 1822.83ZM93.8269 1820.96C94.6202 1820.96 95.3229 1821.09 95.9349 1821.34C96.5582 1821.58 97.1362 1821.92 97.6689 1822.38L96.3599 1823.73C95.9405 1823.42 95.5439 1823.19 95.1699 1823.04C94.8072 1822.89 94.3935 1822.82 93.9289 1822.82C93.0335 1822.82 92.3082 1823.17 91.7529 1823.89C91.2089 1824.59 90.9369 1825.67 90.9369 1827.12C90.9369 1828.65 91.1465 1829.75 91.5659 1830.42C91.9965 1831.07 92.6595 1831.4 93.5549 1831.4C94.2009 1831.4 94.7845 1831.26 95.3059 1830.98V1828.1H93.6569L93.4019 1826.28H97.7369V1832.08C97.1249 1832.46 96.4619 1832.75 95.7479 1832.97C95.0452 1833.17 94.3312 1833.27 93.6059 1833.27C91.8719 1833.27 90.5572 1832.75 89.6619 1831.71C88.7665 1830.67 88.3189 1829.13 88.3189 1827.1C88.3189 1825.82 88.5625 1824.72 89.0499 1823.79C89.5372 1822.86 90.1945 1822.15 91.0219 1821.68C91.8605 1821.2 92.7955 1820.96 93.8269 1820.96ZM104.445 1820.96C105.522 1820.96 106.451 1821.21 107.233 1821.69C108.015 1822.17 108.616 1822.87 109.035 1823.79C109.455 1824.7 109.664 1825.81 109.664 1827.12C109.664 1828.4 109.455 1829.5 109.035 1830.43C108.616 1831.35 108.015 1832.05 107.233 1832.54C106.451 1833.03 105.522 1833.27 104.445 1833.27C103.369 1833.27 102.434 1833.03 101.64 1832.56C100.858 1832.07 100.258 1831.37 99.8385 1830.45C99.4191 1829.52 99.2095 1828.41 99.2095 1827.12C99.2095 1825.85 99.4191 1824.75 99.8385 1823.84C100.269 1822.91 100.875 1822.2 101.657 1821.71C102.451 1821.21 103.38 1820.96 104.445 1820.96ZM104.445 1822.83C103.584 1822.83 102.932 1823.17 102.49 1823.85C102.06 1824.53 101.844 1825.62 101.844 1827.12C101.844 1828.61 102.065 1829.7 102.507 1830.38C102.949 1831.06 103.595 1831.4 104.445 1831.4C105.307 1831.4 105.953 1831.07 106.383 1830.4C106.814 1829.72 107.029 1828.63 107.029 1827.12C107.029 1825.61 106.814 1824.52 106.383 1823.85C105.953 1823.17 105.307 1822.83 104.445 1822.83Z" />
            <!-- Links -->
            <g opacity=".5">
                <rect x="138" y="1823.04" width="40" height="10" fill="#FOOTER_COLOR" class="svgc_text" />
                <rect x="190" y="1823.04" width="40" height="10" fill="#FOOTER_COLOR" class="svgc_text" />
                <rect x="242" y="1823.04" width="40" height="10" fill="#FOOTER_COLOR" class="svgc_text" />
                <rect x="294" y="1823.04" width="40" height="10" fill="#FOOTER_COLOR" class="svgc_text" />
            </g>
            <!-- Social -->
            <g opacity=".5">
                <circle cx="567" cy="1827.04" r="6" fill="#FOOTER_COLOR" class="svgc_text" />
                <circle cx="545" cy="1827.04" r="6" fill="#FOOTER_COLOR" class="svgc_text" />
                <circle cx="523" cy="1827.04" r="6" fill="#FOOTER_COLOR" class="svgc_text" />
            </g>
            <!-- Button -->
            <rect x="588" y="1821.04" width="40" height="12" opacity="1" fill="#FOOTER_COLOR" class="svgc_text" />
        </g>
    </g>
</svg>