<svg id="atharva_footer" width="100%" data-name="Layer 1" xmlns="http://www.w3.org/2000/svg" viewBox="0 0 234 50">
	<defs>
		<style>.cls-01{fill:#fcebd0;}.cls-02{fill:#f4c87a;}.cls-03{fill:#f7bd61;}.cls-04{fill:#f7a116;}.cls-05{fill:#f7ac34;}</style>
	</defs>
	<rect class="cls-01" width="234" height="50"/>
	<rect class="cls-02" width="234" height="11"/>
	<path class="cls-03" d="M32,39.42a3.35,3.35,0,1,1-3.35-3.35A3.35,3.35,0,0,1,32,39.42Z"/>
	<path class="cls-03" d="M40,39.42a3.35,3.35,0,1,1-3.35-3.35A3.35,3.35,0,0,1,40,39.42Z"/>
	<path class="cls-03" d="M48,39.42a3.35,3.35,0,1,1-3.35-3.35A3.35,3.35,0,0,1,48,39.42Z"/>
	<path class="cls-03" d="M56,39.42a3.35,3.35,0,1,1-3.35-3.35A3.35,3.35,0,0,1,56,39.42Z"/>
	<path class="cls-04" d="M29.65,22.85v1.08H25.54v-7h1.31v5.93Z"/>
	<path class="cls-04" d="M37,20.42a3.91,3.91,0,0,1-.26,1.43A3.35,3.35,0,0,1,36,23a3.09,3.09,0,0,1-1.12.74,4,4,0,0,1-2.9,0A3.09,3.09,0,0,1,30.9,23a3.23,3.23,0,0,1-.73-1.14,4.06,4.06,0,0,1,0-2.86,3.28,3.28,0,0,1,.73-1.13A3.24,3.24,0,0,1,32,17.11a3.75,3.75,0,0,1,1.45-.27,4,4,0,0,1,1,.12,3.87,3.87,0,0,1,.86.35,3.46,3.46,0,0,1,.71.55,3.71,3.71,0,0,1,.53.72,4,4,0,0,1,.33.86A3.93,3.93,0,0,1,37,20.42Zm-1.34,0a3.28,3.28,0,0,0-.15-1,2.27,2.27,0,0,0-.44-.78,1.93,1.93,0,0,0-.7-.49,2.43,2.43,0,0,0-.92-.17,2.49,2.49,0,0,0-.93.17,1.89,1.89,0,0,0-.69.49,2.13,2.13,0,0,0-.45.78,3.28,3.28,0,0,0-.15,1,3.35,3.35,0,0,0,.15,1,2.18,2.18,0,0,0,.45.77,1.89,1.89,0,0,0,.69.49,2.49,2.49,0,0,0,.93.17,2.43,2.43,0,0,0,.92-.17,1.93,1.93,0,0,0,.7-.49,2.32,2.32,0,0,0,.44-.77A3.35,3.35,0,0,0,35.68,20.42Z"/>
	<path class="cls-04" d="M43.94,20.41v2.84a3.59,3.59,0,0,1-1.14.57,4.47,4.47,0,0,1-1.29.18A4.24,4.24,0,0,1,40,23.74,3.69,3.69,0,0,1,38.77,23,3.31,3.31,0,0,1,38,21.86a4,4,0,0,1-.26-1.44A4,4,0,0,1,38,19a3.21,3.21,0,0,1,1.88-1.87,4.23,4.23,0,0,1,1.51-.26,4,4,0,0,1,.8.07,3.68,3.68,0,0,1,.69.19,2.83,2.83,0,0,1,.58.28,4.45,4.45,0,0,1,.48.38l-.38.59a.36.36,0,0,1-.23.17.39.39,0,0,1-.3-.07l-.32-.18a1.46,1.46,0,0,0-.36-.16,2.32,2.32,0,0,0-.44-.12,4.45,4.45,0,0,0-.56,0,2.35,2.35,0,0,0-.94.18,2,2,0,0,0-.72.49,2.49,2.49,0,0,0-.45.78,3,3,0,0,0-.16,1,3.31,3.31,0,0,0,.17,1.08,2.39,2.39,0,0,0,.49.8,2.19,2.19,0,0,0,.75.5,2.76,2.76,0,0,0,1,.17,3,3,0,0,0,.7-.08,3.28,3.28,0,0,0,.59-.23V21.39h-.88a.27.27,0,0,1-.2-.07.26.26,0,0,1-.07-.17v-.74Z"/>
	<path class="cls-04" d="M51.88,20.42a3.91,3.91,0,0,1-.25,1.43A3.35,3.35,0,0,1,50.91,23a3.09,3.09,0,0,1-1.12.74,4,4,0,0,1-2.9,0A3.09,3.09,0,0,1,45.77,23,3.23,3.23,0,0,1,45,21.85,4.06,4.06,0,0,1,45,19a3.28,3.28,0,0,1,.73-1.13,3.24,3.24,0,0,1,1.12-.75,3.75,3.75,0,0,1,1.45-.27,4,4,0,0,1,1,.12,3.87,3.87,0,0,1,.86.35,3.46,3.46,0,0,1,.71.55,3.71,3.71,0,0,1,.53.72,4,4,0,0,1,.33.86A3.93,3.93,0,0,1,51.88,20.42Zm-1.33,0a3.28,3.28,0,0,0-.15-1,2.13,2.13,0,0,0-.45-.78,1.89,1.89,0,0,0-.69-.49,2.43,2.43,0,0,0-.92-.17,2.49,2.49,0,0,0-.93.17,2,2,0,0,0-.7.49,2.12,2.12,0,0,0-.44.78,3.28,3.28,0,0,0-.15,1,3.35,3.35,0,0,0,.15,1,2.16,2.16,0,0,0,.44.77,2,2,0,0,0,.7.49,2.49,2.49,0,0,0,.93.17,2.43,2.43,0,0,0,.92-.17,1.89,1.89,0,0,0,.69-.49,2.18,2.18,0,0,0,.45-.77A3.35,3.35,0,0,0,50.55,20.42Z"/>
	<rect class="cls-03" x="26" y="28.42" width="28" height="3"/>
	<rect class="cls-05" x="65.24" y="28" width="28" height="3"/>
	<rect class="cls-05" x="65.24" y="33" width="28" height="3"/>
	<rect class="cls-05" x="65.24" y="38" width="28" height="3"/>
	<rect class="cls-05" x="65.24" y="17" width="28" height="7"/>
	<rect class="cls-05" x="103.83" y="28" width="28" height="3"/>
	<rect class="cls-05" x="103.83" y="33" width="28" height="3"/>
	<rect class="cls-05" x="103.83" y="38" width="28" height="3"/>
	<rect class="cls-05" x="103.83" y="17" width="28" height="7"/>
	<rect class="cls-05" x="142.41" y="28" width="28" height="3"/>
	<rect class="cls-05" x="142.41" y="33" width="28" height="3"/>
	<rect class="cls-05" x="142.41" y="38" width="28" height="3"/>
	<rect class="cls-05" x="142.41" y="17" width="28" height="7"/>
	<rect class="cls-05" x="181" y="28" width="28" height="3"/>
	<rect class="cls-05" x="181" y="33" width="28" height="3"/>
	<rect class="cls-05" x="181" y="38" width="28" height="3"/>
	<rect class="cls-05" x="181" y="17" width="28" height="7"/>
</svg>