<svg id="atharva_header" width="100%" data-name="Layer 1" xmlns="http://www.w3.org/2000/svg" viewBox="0 0 234 50">
	<defs>
		<style>.cls-11{fill:#f9ead4;}.cls-22{fill:#f4c87a;}.cls-33{fill:#f9af38;}.cls-44{fill:#f79406;}.cls-55{fill:#f7d9a9;}.cls-66{fill:#ea9a1b;}</style>
	</defs>
	<rect class="cls-11" width="234" height="50"/>
	<rect class="cls-22" width="234" height="11"/>
	<rect class="cls-33" x="99.58" y="37" width="15" height="5" rx="2.22"/>
	<rect class="cls-33" x="81.25" y="37" width="15" height="5" rx="2.22"/>
	<rect class="cls-33" x="117.92" y="37" width="15" height="5" rx="2.22"/>
	<rect class="cls-33" x="136.25" y="37" width="15" height="5" rx="2.22"/>
	<path class="cls-33" d="M210.3,24.44a3.65,3.65,0,1,1-3.65-3.65A3.64,3.64,0,0,1,210.3,24.44Z"/>
	<path class="cls-33" d="M221.3,24.44a3.65,3.65,0,1,1-3.65-3.65A3.64,3.64,0,0,1,221.3,24.44Z"/>
	<path class="cls-44" d="M16.65,26.87V28H12.54v-7h1.31v5.93Z"/>
	<path class="cls-44" d="M24,24.44a3.91,3.91,0,0,1-.26,1.43A3.45,3.45,0,0,1,23,27a3.22,3.22,0,0,1-1.12.74,4,4,0,0,1-2.9,0A3.22,3.22,0,0,1,17.9,27a3.33,3.33,0,0,1-.73-1.14,4.06,4.06,0,0,1,0-2.86,3.28,3.28,0,0,1,.73-1.13A3.24,3.24,0,0,1,19,21.13a3.75,3.75,0,0,1,1.45-.27,4,4,0,0,1,1,.12,3.87,3.87,0,0,1,.86.35,3.46,3.46,0,0,1,.71.55,3.71,3.71,0,0,1,.53.72,4,4,0,0,1,.33.86A3.93,3.93,0,0,1,24,24.44Zm-1.34,0a3.28,3.28,0,0,0-.15-1,2.27,2.27,0,0,0-.44-.78,1.93,1.93,0,0,0-.7-.49,2.43,2.43,0,0,0-.92-.17,2.49,2.49,0,0,0-.93.17,1.89,1.89,0,0,0-.69.49,2.13,2.13,0,0,0-.45.78,3.28,3.28,0,0,0-.15,1,3.35,3.35,0,0,0,.15,1,2.18,2.18,0,0,0,.45.77,1.89,1.89,0,0,0,.69.49,2.49,2.49,0,0,0,.93.17,2.43,2.43,0,0,0,.92-.17,1.93,1.93,0,0,0,.7-.49,2.32,2.32,0,0,0,.44-.77A3.35,3.35,0,0,0,22.68,24.44Z"/>
	<path class="cls-44" d="M30.94,24.43v2.84a3.59,3.59,0,0,1-1.14.57A4.73,4.73,0,0,1,27,27.76,3.69,3.69,0,0,1,25.77,27,3.31,3.31,0,0,1,25,25.88,4.22,4.22,0,0,1,25,23a3.21,3.21,0,0,1,1.88-1.87,4.23,4.23,0,0,1,1.51-.26,4,4,0,0,1,.8.07,4.64,4.64,0,0,1,.69.18,3.49,3.49,0,0,1,.58.29,4.45,4.45,0,0,1,.48.38l-.38.59a.36.36,0,0,1-.23.17.39.39,0,0,1-.3-.07l-.32-.18a1.46,1.46,0,0,0-.36-.16,2.32,2.32,0,0,0-.44-.12,4.45,4.45,0,0,0-.56,0,2.54,2.54,0,0,0-.94.17,2.16,2.16,0,0,0-.72.5,2.49,2.49,0,0,0-.45.78,3,3,0,0,0-.16,1,3.31,3.31,0,0,0,.17,1.08,2.25,2.25,0,0,0,.49.79,1.94,1.94,0,0,0,.75.5,2.55,2.55,0,0,0,1,.18,2.53,2.53,0,0,0,.7-.09,3.23,3.23,0,0,0,.59-.22V25.41h-.88a.27.27,0,0,1-.2-.07.26.26,0,0,1-.07-.17v-.74Z"/>
	<path class="cls-44" d="M38.88,24.44a3.91,3.91,0,0,1-.25,1.43A3.45,3.45,0,0,1,37.91,27a3.22,3.22,0,0,1-1.12.74,4,4,0,0,1-2.9,0A3.22,3.22,0,0,1,32.77,27,3.33,3.33,0,0,1,32,25.87,4.06,4.06,0,0,1,32,23a3.28,3.28,0,0,1,.73-1.13,3.24,3.24,0,0,1,1.12-.75,3.75,3.75,0,0,1,1.45-.27,4,4,0,0,1,1,.12,3.87,3.87,0,0,1,.86.35,3.46,3.46,0,0,1,.71.55,3.71,3.71,0,0,1,.53.72,4,4,0,0,1,.33.86A3.93,3.93,0,0,1,38.88,24.44Zm-1.33,0a3.28,3.28,0,0,0-.15-1,2.13,2.13,0,0,0-.45-.78,1.89,1.89,0,0,0-.69-.49,2.43,2.43,0,0,0-.92-.17,2.49,2.49,0,0,0-.93.17,2,2,0,0,0-.7.49,2.12,2.12,0,0,0-.44.78,3.28,3.28,0,0,0-.15,1,3.35,3.35,0,0,0,.15,1,2.16,2.16,0,0,0,.44.77,2,2,0,0,0,.7.49,2.49,2.49,0,0,0,.93.17,2.43,2.43,0,0,0,.92-.17,1.89,1.89,0,0,0,.69-.49,2.18,2.18,0,0,0,.45-.77A3.35,3.35,0,0,0,37.55,24.44Z"/>
	<rect class="cls-55" x="85.25" y="20.94" width="62" height="7"/>
	<rect class="cls-66" x="140.25" y="20.94" width="7" height="7"/>
</svg>