<svg id="Layer_1" width="82" data-name="Layer 1" xmlns="http://www.w3.org/2000/svg" viewBox="0 0 82 60"><defs><style>.cl-cls-1{fill:#ede0d4;}.cl-cls-2{fill:#bf967f;}.cl-cls-3{fill:#ddc3ab;}</style></defs><rect class="cl-cls-1" width="82" height="60"/><rect class="cl-cls-2" x="7" y="8.53" width="19" height="3.87"/><rect class="cl-cls-2" x="31" y="8.53" width="19" height="3.87"/><rect class="cl-cls-2" x="56" y="8.53" width="19" height="3.87"/><rect class="cl-cls-2" x="7" y="18.53" width="4" height="3.87"/><rect class="cl-cls-3" x="12" y="18.53" width="14" height="3.87"/><rect class="cl-cls-2" x="31" y="18.53" width="4" height="3.87"/><rect class="cl-cls-3" x="36" y="18.53" width="14" height="3.87"/><rect class="cl-cls-2" x="56" y="18.53" width="4" height="3.87"/><rect class="cl-cls-3" x="61" y="18.53" width="14" height="3.87"/><rect class="cl-cls-2" x="7" y="28.53" width="4" height="3.88"/><rect class="cl-cls-3" x="12" y="28.53" width="14" height="3.88"/><rect class="cl-cls-2" x="31" y="28.53" width="4" height="3.88"/><rect class="cl-cls-3" x="36" y="28.53" width="14" height="3.88"/><rect class="cl-cls-2" x="56" y="28.53" width="4" height="3.88"/><rect class="cl-cls-3" x="61" y="28.53" width="14" height="3.88"/><rect class="cl-cls-2" x="7" y="38.53" width="4" height="3.88"/><rect class="cl-cls-3" x="12" y="38.53" width="14" height="3.88"/><rect class="cl-cls-2" x="31" y="38.53" width="4" height="3.88"/><rect class="cl-cls-3" x="36" y="38.53" width="14" height="3.88"/><rect class="cl-cls-2" x="56" y="38.53" width="4" height="3.88"/><rect class="cl-cls-3" x="61" y="38.53" width="14" height="3.88"/><rect class="cl-cls-2" x="7" y="48.53" width="4" height="3.88"/><rect class="cl-cls-3" x="12" y="48.53" width="14" height="3.88"/><rect class="cl-cls-2" x="31" y="48.53" width="4" height="3.88"/><rect class="cl-cls-3" x="36" y="48.53" width="14" height="3.88"/><rect class="cl-cls-2" x="56" y="48.53" width="4" height="3.88"/><rect class="cl-cls-3" x="61" y="48.53" width="14" height="3.88"/></svg>