<svg id="Layer_1" data-name="Layer 1" width="82" xmlns="http://www.w3.org/2000/svg" viewBox="0 0 82 60"><defs><style>.pg-cls-1{fill:#ede0d4;}.pg-cls-2{fill:#ddc3ab;}.pg-cls-3{fill:#bf967f;}</style></defs><rect class="pg-cls-1" width="82" height="60"/><rect class="pg-cls-2" x="6" y="9.5" width="14" height="14"/><rect class="pg-cls-2" x="24.83" y="9.5" width="14" height="14"/><rect class="pg-cls-2" x="43.17" y="9.5" width="14" height="14"/><rect class="pg-cls-2" x="62" y="9.5" width="14" height="14"/><rect class="pg-cls-3" x="6" y="25.5" width="14" height="2"/><rect class="pg-cls-3" x="24.83" y="25.5" width="14" height="2"/><rect class="pg-cls-3" x="43.17" y="25.5" width="14" height="2"/><rect class="pg-cls-3" x="62" y="25.5" width="14" height="2"/><rect class="pg-cls-2" x="6" y="32.5" width="14" height="14"/><rect class="pg-cls-2" x="24.83" y="32.5" width="14" height="14"/><rect class="pg-cls-2" x="43.17" y="32.5" width="14" height="14"/><rect class="pg-cls-2" x="62" y="32.5" width="14" height="14"/><rect class="pg-cls-3" x="6" y="48.5" width="14" height="2"/><rect class="pg-cls-3" x="24.83" y="48.5" width="14" height="2"/><rect class="pg-cls-3" x="43.17" y="48.5" width="14" height="2"/><rect class="pg-cls-3" x="62" y="48.5" width="14" height="2"/></svg>