<svg width="421" height="54" viewBox="0 0 421 54" fill="none" xmlns="http://www.w3.org/2000/svg">
<rect x="0.961426" y="4.00037" width="419.463" height="49.0841" transform="rotate(-0.493991 0.961426 4.00037)" fill="url(#paint0_linear)"/>
<path fill-rule="evenodd" clip-rule="evenodd" d="M387.47 10.17H396.434L395.571 30.83H388.332L387.47 10.17ZM389.034 11.67L389.771 29.33H394.132L394.87 11.67H389.034ZM362.562 12.27C359.646 12.27 357.356 12.9846 355.627 14.3489L355.622 14.353C353.93 15.6633 353.072 17.4743 353.072 19.88C353.072 21.5235 353.457 22.7775 354.161 23.7077C354.922 24.7142 355.818 25.4616 356.851 25.9661C357.95 26.5028 359.389 27.0492 361.18 27.6024C362.439 27.9775 363.431 28.3202 364.139 28.6314C364.901 28.9541 365.555 29.3744 366.085 29.9022C366.718 30.5039 367.032 31.2756 367.032 32.16C367.032 33.1885 366.655 34.064 365.877 34.7005L365.869 34.7071L365.861 34.7135C365.102 35.2998 364.121 35.55 363.002 35.55C361.875 35.55 360.888 35.2421 360.11 34.566L360.103 34.56L360.097 34.5539C359.469 33.981 359.076 33.2308 358.883 32.35H353.045C353.195 33.7188 353.64 34.8859 354.364 35.8725C355.263 37.0616 356.457 37.9673 357.967 38.5861C359.489 39.2101 361.23 39.53 363.202 39.53C365.218 39.53 366.925 39.1603 368.347 38.4492C369.785 37.7304 370.845 36.7805 371.563 35.6084L371.569 35.5991C372.317 34.4167 372.692 33.1033 372.692 31.64C372.692 30.0848 372.311 28.8852 371.609 27.9795C370.849 26.9982 369.951 26.2607 368.913 25.754L368.907 25.7509C367.83 25.2125 366.4 24.6389 364.607 24.0321C362.782 23.4415 361.386 22.8749 360.459 22.3249C359.404 21.6986 358.812 20.7603 358.812 19.56C358.812 18.5755 359.12 17.7165 359.831 17.1132C360.502 16.5171 361.357 16.25 362.322 16.25C363.425 16.25 364.395 16.5593 365.167 17.2277C365.78 17.737 366.163 18.3975 366.335 19.17H372.263C371.996 17.1112 371.097 15.5254 369.583 14.353L369.578 14.3489C367.85 12.9864 365.535 12.27 362.562 12.27ZM354.699 13.1702C356.756 11.5485 359.399 10.77 362.562 10.77C365.774 10.77 368.445 11.5463 370.504 13.1688C372.588 14.7841 373.688 17.0502 373.831 19.8822L373.871 20.67H364.975L364.934 19.9641C364.891 19.233 364.634 18.7329 364.205 18.3783L364.197 18.3722L364.19 18.366C363.737 17.9722 363.136 17.75 362.322 17.75C361.638 17.75 361.163 17.9339 360.822 18.239L360.814 18.2465L360.805 18.2537C360.509 18.5035 360.312 18.895 360.312 19.56C360.312 20.1731 360.573 20.6482 361.225 21.0352C362.005 21.4981 363.274 22.0243 365.073 22.6065L365.083 22.6095C366.912 23.2283 368.413 23.8271 369.575 24.4077C370.829 25.021 371.903 25.9096 372.795 27.0606C373.747 28.2882 374.192 29.8353 374.192 31.64C374.192 33.375 373.742 34.9667 372.839 36.3965C371.957 37.8355 370.672 38.9639 369.018 39.7909C367.347 40.6264 365.4 41.03 363.202 41.03C361.068 41.03 359.129 40.6834 357.398 39.974C355.656 39.2602 354.238 38.194 353.164 36.772L353.158 36.7641C352.096 35.3185 351.55 33.5927 351.493 31.6218L351.47 30.85H360.199L360.268 31.5235C360.361 32.4249 360.66 33.034 361.101 33.4401C361.55 33.8269 362.161 34.05 363.002 34.05C363.904 34.05 364.521 33.8495 364.936 33.5327C365.326 33.21 365.532 32.7806 365.532 32.16C365.532 31.6614 365.369 31.2892 365.047 30.9853L365.04 30.978L365.032 30.9704C364.658 30.5961 364.17 30.2729 363.55 30.0108L363.54 30.0065C362.916 29.7319 361.991 29.4091 360.748 29.0388L360.741 29.0367C358.907 28.4702 357.387 27.897 356.193 27.314C354.933 26.6985 353.856 25.7926 352.964 24.6124C352.014 23.3559 351.572 21.7566 351.572 19.88C351.572 17.0609 352.607 14.793 354.699 13.1702ZM160.479 12.35C157.876 12.35 155.566 12.9356 153.529 14.0922L153.527 14.0937C151.518 15.2237 149.95 16.8145 148.816 18.8809L148.814 18.8843C147.684 20.9198 147.109 23.2583 147.109 25.92C147.109 28.5818 147.684 30.9203 148.814 32.9558C149.948 34.9955 151.515 36.5887 153.528 37.7469C155.564 38.8773 157.875 39.45 160.479 39.45C163.674 39.45 166.366 38.6223 168.594 36.9964C170.572 35.5288 171.972 33.5888 172.792 31.15H166.736C166.132 32.2426 165.308 33.1074 164.263 33.7241C163.122 34.4139 161.826 34.75 160.399 34.75C158.096 34.75 156.179 33.938 154.719 32.299C153.261 30.6631 152.569 28.5098 152.569 25.92C152.569 23.3303 153.261 21.177 154.719 19.5411C156.179 17.9021 158.096 17.09 160.399 17.09C161.826 17.09 163.122 17.4262 164.263 18.116C165.308 18.7327 166.132 19.5975 166.736 20.69H172.792C171.972 18.2506 170.571 16.3102 168.592 14.8425C166.364 13.1904 163.673 12.35 160.479 12.35ZM152.79 12.7871C155.073 11.4909 157.642 10.85 160.479 10.85C163.952 10.85 166.967 11.7697 169.486 13.6376C172.005 15.5059 173.684 18.0556 174.524 21.2492L174.772 22.19H165.806L165.602 21.7631C165.101 20.7136 164.399 19.9377 163.498 19.4061L163.491 19.4017C162.606 18.8664 161.583 18.59 160.399 18.59C158.489 18.59 156.992 19.2446 155.839 20.5389C154.683 21.8365 154.069 23.6031 154.069 25.92C154.069 28.237 154.683 30.0036 155.839 31.3011C156.992 32.5955 158.489 33.25 160.399 33.25C161.583 33.25 162.606 32.9737 163.491 32.4384L163.498 32.434C164.399 31.9024 165.101 31.1265 165.602 30.077L165.806 29.65H174.772L174.524 30.5909C173.684 33.7845 172.005 36.3342 169.486 38.2025L169.481 38.2057C166.963 40.0452 163.949 40.95 160.479 40.95C157.645 40.95 155.077 40.3237 152.795 39.0557L152.785 39.0502C150.533 37.7553 148.769 35.9629 147.503 33.6843C146.234 31.3998 145.609 28.805 145.609 25.92C145.609 23.0365 146.233 20.4428 147.501 18.1591C147.502 18.158 147.503 18.1569 147.503 18.1558L148.159 18.52L147.501 18.1591C147.501 18.159 147.501 18.1591 147.501 18.1591C148.767 15.8526 150.533 14.0571 152.79 12.7871ZM36.3939 11.17H56.1739V18.15H44.7339V22.57H53.2939V29.39H44.7339V40.75H36.3939V11.17ZM37.8939 12.67V39.25H43.2339V27.89H51.7939V24.07H43.2339V16.65H54.6739V12.67H37.8939ZM67.2689 11.17H85.9689V18.15H75.6089V22.33H84.7689V29.11H75.6089V33.77H85.9689V40.75H67.2689V11.17ZM68.7689 12.67V39.25H84.4689V35.27H74.1089V27.61H83.2689V23.83H74.1089V16.65H84.4689V12.67H68.7689ZM97.9095 11.17H106.249V33.97H115.209V40.75H97.9095V11.17ZM99.4095 12.67V39.25H113.709V35.47H104.749V12.67H99.4095ZM125.972 11.17H134.312V40.75H125.972V11.17ZM127.472 12.67V39.25H132.812V12.67H127.472ZM186.238 11.17H194.578V40.75H186.238V11.17ZM187.738 12.67V39.25H193.078V12.67H187.738ZM207.034 11.17H218.304C221.365 11.17 224.076 11.7771 226.416 13.0174C228.751 14.2554 230.563 16.0079 231.835 18.2669C233.136 20.5022 233.774 23.0745 233.774 25.96C233.774 28.8214 233.135 31.3923 231.836 33.6516C230.563 35.9132 228.736 37.666 226.374 38.9035C226.374 38.9038 226.373 38.9041 226.372 38.9044L226.024 38.24L226.376 38.9027C226.375 38.903 226.375 38.9032 226.374 38.9035C224.036 40.1427 221.339 40.75 218.304 40.75H207.034V11.17ZM208.534 12.67V39.25H218.304C221.136 39.25 223.585 38.6843 225.673 37.5774L225.676 37.5757C227.793 36.4673 229.404 34.915 230.531 32.9123L230.534 32.9062C231.688 30.8994 232.274 28.5911 232.274 25.96C232.274 23.3007 231.688 20.9945 230.536 19.0174L230.531 19.0077C229.403 17.0027 227.803 15.4504 225.713 14.3427C223.626 13.2363 221.164 12.67 218.304 12.67H208.534ZM253.641 11.17H262.613L273.316 40.75H264.469L262.789 35.79H253.385L251.705 40.75H242.938L253.641 11.17ZM254.693 12.67L245.076 39.25H250.629L252.309 34.29H263.865L265.545 39.25H271.178L261.561 12.67H254.693ZM283.589 11.17H294.859C297.919 11.17 300.631 11.7771 302.97 13.0174C305.306 14.2555 307.118 16.0083 308.39 18.2677C309.69 20.5028 310.329 23.0749 310.329 25.96C310.329 28.8208 309.689 31.3913 308.391 33.6503C307.118 35.9121 305.292 37.665 302.93 38.9027C300.592 40.1425 297.894 40.75 294.859 40.75H283.589V11.17ZM285.089 12.67V39.25H294.859C297.691 39.25 300.14 38.6843 302.228 37.5774L302.231 37.5757C304.347 36.4673 305.959 34.915 307.086 32.9123L307.089 32.9062C308.243 30.8994 308.829 28.5911 308.829 25.96C308.829 23.3007 308.242 20.9945 307.091 19.0174L307.086 19.0077C305.958 17.0027 304.357 15.4504 302.268 14.3427C300.181 13.2363 297.719 12.67 294.859 12.67H285.089ZM321.652 11.17H340.352V18.15H329.992V22.33H339.152V29.11H329.992V33.77H340.352V40.75H321.652V11.17ZM323.152 12.67V39.25H338.852V35.27H328.492V27.61H337.652V23.83H328.492V16.65H338.852V12.67H323.152ZM17.8798 17.87C16.8417 17.87 16.0464 18.1759 15.4309 18.749C14.8406 19.2971 14.5498 19.9637 14.5498 20.8C14.5498 21.6672 14.8434 22.3622 15.4356 22.9355C16.0505 23.5057 16.8444 23.81 17.8798 23.81C18.8866 23.81 19.651 23.5073 20.2392 22.9402L20.2487 22.931C20.868 22.3544 21.1698 21.6608 21.1698 20.8C21.1698 19.9728 20.8736 19.3093 20.2591 18.7585L20.249 18.7494L20.2392 18.7399C19.651 18.1727 18.8866 17.87 17.8798 17.87ZM14.4091 17.6508C15.3402 16.7841 16.518 16.37 17.8798 16.37C19.2149 16.37 20.3669 16.7843 21.2706 17.6507C22.1962 18.4852 22.6698 19.5518 22.6698 20.8C22.6698 22.0705 22.1999 23.1618 21.2757 24.0245C20.3712 24.8942 19.2174 25.31 17.8798 25.31C16.5179 25.31 15.3399 24.8959 14.4087 24.029L14.3991 24.02C13.5013 23.1542 13.0498 22.0639 13.0498 20.8C13.0498 19.5566 13.5063 18.4893 14.4091 17.6508ZM213.874 17.01H217.864C220.594 17.01 222.819 17.7736 224.435 19.3897C226.051 21.0058 226.814 23.2309 226.814 25.96C226.814 28.6884 226.051 30.904 224.43 32.4953C222.813 34.0821 220.59 34.83 217.864 34.83H213.874V17.01ZM215.374 18.51V33.33H217.864C220.313 33.33 222.116 32.6647 223.379 31.4248C224.638 30.1894 225.314 28.405 225.314 25.96C225.314 23.5158 224.638 21.7143 223.374 20.4504C222.11 19.1865 220.309 18.51 217.864 18.51H215.374ZM290.429 17.01H294.419C297.148 17.01 299.373 17.7736 300.99 19.3897C302.606 21.0058 303.369 23.2309 303.369 25.96C303.369 28.6884 302.606 30.904 300.985 32.4953C299.368 34.0821 297.144 34.83 294.419 34.83H290.429V17.01ZM291.929 18.51V33.33H294.419C296.867 33.33 298.671 32.6647 299.934 31.4248C301.193 30.1894 301.869 28.405 301.869 25.96C301.869 23.5158 301.193 21.7143 299.929 20.4504C298.665 19.1865 296.863 18.51 294.419 18.51H291.929ZM258.083 17.1289L262.613 30.51H253.605L258.083 17.1289ZM258.091 21.8312L255.689 29.01H260.521L258.091 21.8312ZM14.1605 26.61H21.3991L22.2618 47.27H13.2978L14.1605 26.61ZM15.5991 28.11L14.8618 45.77H20.6978L19.9605 28.11H15.5991ZM392.052 33.63C391.017 33.63 390.223 33.9342 389.608 34.5042C389.015 35.0776 388.722 35.7727 388.722 36.64C388.722 37.4725 389.01 38.1545 389.603 38.7308C390.216 39.2758 391.012 39.57 392.052 39.57C393.066 39.57 393.834 39.2757 394.421 38.7311C395.044 38.1504 395.342 37.4681 395.342 36.64C395.342 35.7793 395.04 35.0856 394.421 34.509L394.411 34.4999C393.823 33.9327 393.058 33.63 392.052 33.63ZM388.581 33.4111C389.512 32.5442 390.69 32.13 392.052 32.13C393.389 32.13 394.544 32.546 395.448 33.416C396.372 34.2787 396.842 35.3698 396.842 36.64C396.842 37.892 396.366 38.9697 395.443 39.829C394.536 40.6706 393.384 41.07 392.052 41.07C390.697 41.07 389.523 40.6742 388.591 39.8385L388.581 39.8294L388.571 39.8199C387.677 38.9582 387.222 37.8831 387.222 36.64C387.222 35.3762 387.673 34.286 388.571 33.4202L388.581 33.4111Z" fill="white"/>
<defs>
<linearGradient id="paint0_linear" x1="210.693" y1="4.00037" x2="210.693" y2="53.0845" gradientUnits="userSpaceOnUse">
<stop stop-color="#C361DC"/>
<stop offset="1" stop-color="#F2E44A"/>
</linearGradient>
</defs>
</svg>
